<svg width="13" height="12" viewBox="0 0 13 12" fill="none" xmlns="http://www.w3.org/2000/svg">
<path d="M11.6429 6.85714H7.35714V11.1429C7.35714 11.3702 7.26684 11.5882 7.10609 11.7489C6.94535 11.9097 6.72733 12 6.5 12C6.27267 12 6.05465 11.9097 5.89391 11.7489C5.73316 11.5882 5.64286 11.3702 5.64286 11.1429V6.85714H1.35714C1.12981 6.85714 0.911797 6.76684 0.751052 6.60609C0.590306 6.44535 0.5 6.22733 0.5 6C0.5 5.77267 0.590306 5.55465 0.751052 5.39391C0.911797 5.23316 1.12981 5.14286 1.35714 5.14286H5.64286V0.857143C5.64286 0.629814 5.73316 0.411797 5.89391 0.251051C6.05465 0.0903056 6.27267 0 6.5 0C6.72733 0 6.94535 0.0903056 7.10609 0.251051C7.26684 0.411797 7.35714 0.629814 7.35714 0.857143V5.14286H11.6429C11.8702 5.14286 12.0882 5.23316 12.249 5.39391C12.4097 5.55465 12.5 5.77267 12.5 6C12.5 6.22733 12.4097 6.44535 12.249 6.60609C12.0882 6.76684 11.8702 6.85714 11.6429 6.85714Z" fill="#F2F1F8"/>
</svg>
