<svg width="40" height="40" viewBox="0 0 40 40" fill="none" xmlns="http://www.w3.org/2000/svg">
<path d="M33.8549 18.7881C34.014 18.6377 34.2012 18.5202 34.4058 18.4422C34.6103 18.3641 34.8282 18.3272 35.0471 18.3334C35.2659 18.3395 35.4814 18.3888 35.6812 18.4782C35.881 18.5677 36.0612 18.6957 36.2116 18.8548C36.3619 19.0139 36.4795 19.2011 36.5575 19.4056C36.6355 19.6102 36.6725 19.8281 36.6663 20.0469C36.6601 20.2657 36.6109 20.4812 36.5214 20.681C36.432 20.8808 36.304 21.0611 36.1449 21.2114L21.1449 35.3781C20.8355 35.6707 20.4258 35.8337 19.9999 35.8337C19.5741 35.8337 19.1644 35.6707 18.8549 35.3781L3.85324 21.2114C3.69064 21.0621 3.55934 20.8819 3.46696 20.6813C3.37459 20.4808 3.32299 20.2639 3.31515 20.0432C3.30731 19.8226 3.34339 19.6026 3.4213 19.396C3.49921 19.1894 3.61739 19.0003 3.76898 18.8398C3.92057 18.6792 4.10255 18.5504 4.30435 18.4608C4.50614 18.3712 4.72373 18.3226 4.94448 18.3178C5.16522 18.313 5.38472 18.3521 5.59022 18.4328C5.79573 18.5136 5.98314 18.6343 6.14158 18.7881L19.9999 31.8748L33.8549 18.7881Z" fill="#F2F1F8"/>
</svg>
