<svg width="14" height="6" viewBox="0 0 14 6" fill="none" xmlns="http://www.w3.org/2000/svg">
<path d="M12.8196 0.16124C12.8864 0.109734 12.965 0.0694692 13.0508 0.0427424C13.1367 0.0160155 13.2282 0.00335045 13.32 0.00547096C13.4119 0.00759147 13.5023 0.0244558 13.5862 0.0551008C13.6701 0.0857459 13.7457 0.129571 13.8088 0.184076C13.872 0.23858 13.9213 0.302695 13.954 0.372761C13.9868 0.442826 14.0023 0.517469 13.9997 0.592429C13.9971 0.667389 13.9765 0.741198 13.9389 0.80964C13.9013 0.878083 13.8476 0.939819 13.7809 0.991324L7.48455 5.84395C7.35466 5.94416 7.18268 6 7.00393 6C6.82518 6 6.65321 5.94416 6.52331 5.84395L0.226309 0.991324C0.158056 0.940159 0.102941 0.878436 0.0641661 0.809742C0.0253916 0.741048 0.00373077 0.666751 0.000439644 0.591168C-0.00285053 0.515584 0.0122957 0.44022 0.0449982 0.369454C0.0777006 0.298687 0.127308 0.233928 0.190939 0.178939C0.25457 0.12395 0.330956 0.0798265 0.41566 0.0491315C0.500364 0.0184365 0.591698 0.00178209 0.684356 0.00013535C0.777015 -0.00151138 0.86915 0.0118823 0.955412 0.0395388C1.04167 0.0671954 1.12034 0.108563 1.18684 0.16124L7.00393 4.64392L12.8196 0.16124Z" fill="#F2F1F8"/>
</svg>
