<svg width="8" height="4" viewBox="0 0 8 4" fill="none" xmlns="http://www.w3.org/2000/svg">
<path d="M7.3255 0.107493C7.36366 0.0731563 7.40856 0.0463128 7.45762 0.0284949C7.50668 0.010677 7.55895 0.00223363 7.61144 0.00364731C7.66393 0.00506098 7.71562 0.0163039 7.76354 0.0367339C7.81147 0.0571639 7.8547 0.086381 7.89076 0.122717C7.92683 0.159053 7.95503 0.201797 7.97374 0.248507C7.99246 0.295217 8.00132 0.34498 7.99984 0.394953C7.99836 0.444926 7.98655 0.494132 7.96509 0.53976C7.94363 0.585388 7.91294 0.626546 7.87477 0.660883L4.27689 3.89597C4.20266 3.96277 4.10439 4 4.00225 4C3.9001 4 3.80183 3.96277 3.72761 3.89597L0.12932 0.660883C0.0903182 0.626773 0.0588236 0.585624 0.0366669 0.539828C0.0145102 0.494032 0.00213242 0.444501 0.00025177 0.394112C-0.00162888 0.343723 0.00702667 0.29348 0.0257139 0.246302C0.0444007 0.199125 0.0727477 0.155952 0.109108 0.119293C0.145469 0.0826334 0.189118 0.0532176 0.23752 0.0327543C0.285923 0.012291 0.338113 0.00118806 0.391061 9.02336e-05C0.444008 -0.00100759 0.496657 0.00792152 0.54595 0.0263592C0.595242 0.0447969 0.640194 0.0723756 0.678197 0.107493L4.00225 3.09595L7.3255 0.107493Z" fill="#F2F1F8"/>
</svg>
