<svg width="32" height="32" viewBox="0 0 32 32" fill="none" xmlns="http://www.w3.org/2000/svg">
<g clip-path="url(#clip0_186_7407)">
<path d="M22.1653 18.5584L25.788 22.1797L15.984 31.9837L6.18133 22.1811L9.804 18.5584L15.9853 24.7717L22.1653 18.5584ZM28.348 12.3771L32 15.9984L28.38 19.6197L24.7573 15.9984L28.348 12.3771ZM15.9853 12.3771L19.6067 15.9664L15.984 19.5891L12.3627 15.9984L15.984 12.3784L15.9853 12.3771ZM3.62133 12.3771L7.21333 15.9984L3.624 19.5877L0 15.9984L3.62133 12.3771ZM15.9867 0.0117188L25.7893 9.78505L22.1667 13.4051L15.9853 7.22372L9.80533 13.4371L6.18267 9.81572L15.9853 0.0130521L15.9867 0.0117188Z" fill="#FFC700"/>
</g>
<defs>
<clipPath id="clip0_186_7407">
<rect width="32" height="32" fill="white"/>
</clipPath>
</defs>
</svg>
