<svg width="35" height="34" viewBox="0 0 35 34" fill="none" xmlns="http://www.w3.org/2000/svg">
<g clip-path="url(#clip0_57_146)">
<path d="M17.2998 34C26.6886 34 34.2998 26.3888 34.2998 17C34.2998 7.61116 26.6886 0 17.2998 0C7.91096 0 0.299805 7.61116 0.299805 17C0.299805 26.3888 7.91096 34 17.2998 34Z" fill="#F2F1F8" fill-opacity="0.2"/>
<path d="M24.9381 14.8963C25.2717 12.6693 23.5749 11.4718 21.2565 10.6728L22.0087 7.65531L20.1727 7.19844L19.4396 10.1363C18.9572 10.0151 18.4621 9.9025 17.9681 9.78987L18.7065 6.83294L16.8705 6.375L16.1182 9.39144C15.7187 9.30006 15.3256 9.21081 14.9452 9.11519L14.9474 9.10562L12.4144 8.47344L11.9256 10.4348C11.9256 10.4348 13.2888 10.7472 13.2601 10.7663C14.0039 10.9523 14.1377 11.4442 14.1154 11.8352L13.2591 15.2724C13.3101 15.2851 13.3759 15.3042 13.4503 15.3329L13.2559 15.2851L12.0552 20.1004C11.9639 20.3256 11.7333 20.6646 11.2127 20.536C11.2318 20.5626 9.87818 20.2034 9.87818 20.2034L8.96655 22.3051L11.3572 22.9011C11.8013 23.0127 12.2369 23.1296 12.6651 23.239L11.9054 26.2905L13.7404 26.7474L14.4926 23.7299C14.9941 23.8648 15.4807 23.9902 15.9567 24.1092L15.2066 27.1139L17.0426 27.5708L17.8023 24.5257C20.9346 25.1186 23.2891 24.8795 24.2804 22.0469C25.0794 19.7668 24.2411 18.4503 22.5931 17.5929C23.7937 17.3166 24.6969 16.5272 24.9381 14.8963ZM20.7412 20.7804C20.1749 23.0616 16.3339 21.828 15.0887 21.5188L16.0981 17.476C17.3433 17.7873 21.3351 18.4025 20.7412 20.7804ZM21.3096 14.8633C20.7922 16.9384 17.5962 15.8833 16.5602 15.6251L17.474 11.9595C18.5099 12.2177 21.8494 12.699 21.3096 14.8633Z" fill="#0D1220"/>
</g>
<defs>
<clipPath id="clip0_57_146">
<rect width="34" height="34" fill="white" transform="translate(0.299805)"/>
</clipPath>
</defs>
</svg>
