<svg width="50" height="50" viewBox="0 0 50 50" fill="none" xmlns="http://www.w3.org/2000/svg">
<rect x="1" y="1" width="48" height="48" rx="7" stroke="#FF7610" stroke-width="2"/>
<path d="M18.0725 27.6059C17.993 27.6811 17.8994 27.7399 17.7971 27.7789C17.6948 27.8179 17.5859 27.8364 17.4765 27.8333C17.3671 27.8302 17.2593 27.8056 17.1594 27.7609C17.0595 27.7161 16.9694 27.6522 16.8942 27.5726C16.819 27.4931 16.7603 27.3995 16.7212 27.2972C16.6822 27.1949 16.6637 27.086 16.6668 26.9765C16.6699 26.8671 16.6945 26.7594 16.7393 26.6595C16.784 26.5596 16.848 26.4695 16.9275 26.3943L24.4275 19.3109C24.5823 19.1647 24.7871 19.0832 25 19.0832C25.213 19.0832 25.4178 19.1647 25.5725 19.3109L33.0734 26.3943C33.1547 26.469 33.2203 26.5591 33.2665 26.6593C33.3127 26.7596 33.3385 26.8681 33.3424 26.9784C33.3463 27.0887 33.3283 27.1987 33.2893 27.302C33.2504 27.4053 33.1913 27.4998 33.1155 27.5801C33.0397 27.6604 32.9487 27.7248 32.8478 27.7696C32.7469 27.8144 32.6381 27.8387 32.5278 27.8411C32.4174 27.8435 32.3076 27.824 32.2049 27.7836C32.1021 27.7432 32.0084 27.6828 31.9292 27.6059L25 21.0626L18.0725 27.6059Z" fill="#FF7610"/>
</svg>
