<svg width="24" height="16" viewBox="0 0 24 16" fill="none" xmlns="http://www.w3.org/2000/svg">
<path d="M2 15.5C1.64584 15.5 1.34875 15.38 1.10875 15.14C0.868754 14.9 0.749171 14.6033 0.750004 14.25C0.750004 13.8958 0.870004 13.5988 1.11 13.3588C1.35 13.1188 1.64667 12.9992 2 13H22C22.3542 13 22.6513 13.12 22.8913 13.36C23.1313 13.6 23.2508 13.8967 23.25 14.25C23.25 14.6042 23.13 14.9013 22.89 15.1413C22.65 15.3813 22.3533 15.5008 22 15.5H2ZM2 9.25C1.64584 9.25 1.34875 9.13 1.10875 8.89C0.868754 8.65 0.749171 8.35334 0.750004 8C0.750004 7.64584 0.870004 7.34875 1.11 7.10875C1.35 6.86875 1.64667 6.74917 2 6.75H22C22.3542 6.75 22.6513 6.87 22.8913 7.11C23.1313 7.35 23.2508 7.64667 23.25 8C23.25 8.35417 23.13 8.65125 22.89 8.89125C22.65 9.13125 22.3533 9.25084 22 9.25H2ZM2 3C1.64584 3 1.34875 2.88 1.10875 2.64C0.868754 2.4 0.749171 2.10334 0.750004 1.75C0.750004 1.39584 0.870004 1.09875 1.11 0.858755C1.35 0.618755 1.64667 0.499171 2 0.500004H22C22.3542 0.500004 22.6513 0.620004 22.8913 0.860004C23.1313 1.1 23.2508 1.39667 23.25 1.75C23.25 2.10417 23.13 2.40125 22.89 2.64125C22.65 2.88125 22.3533 3.00084 22 3H2Z" fill="#FF7610"/>
</svg>
