<svg width="77" height="70" viewBox="0 0 77 70" fill="none" xmlns="http://www.w3.org/2000/svg">
<path fill-rule="evenodd" clip-rule="evenodd" d="M45.1274 49.2069C45.1274 45.1446 47.5355 42.9809 50.0106 42.9809C51.1252 42.9809 52.424 43.5103 52.424 43.5103L52.0746 45.7997C52.0746 45.7997 51.1972 45.1816 50.1047 45.1816C48.6479 45.1816 47.3393 46.5847 47.3393 49.1344C47.3393 50.3913 47.9495 51.5608 49.4705 51.5608C50.1924 51.5608 51.2442 51.0288 51.2442 51.0288L50.8626 53.3827C50.8626 53.3827 49.7101 53.6785 48.9867 53.6783C46.4281 53.6783 45.1274 51.9007 45.1274 49.2069ZM68.6673 43.1852L70.8199 43.1798L69.1806 53.251H67.0897L67.1838 52.496C67.1838 52.496 66.4707 53.38 65.1843 53.38C63.3959 53.38 62.5236 51.6782 62.5236 49.9432C62.5236 47.2554 64.1626 44.9183 66.1303 44.9183C67.3958 44.9183 68.205 46.0174 68.205 46.0174L68.6673 43.1852ZM7.44874 53.3047L9.16332 43.2093L12.2943 43.2094L12.4045 49.4031L14.5196 43.2093H17.9166L16.2234 53.3047H14.0277L15.2506 45.6923L12.4932 53.3047H11.0151L10.8216 45.6923L9.5154 53.3047H7.44874ZM29.5051 51.6925C29.5051 50.8477 30.708 43.9118 30.7547 43.865H32.8725L32.6575 45.1064H33.7136L33.4422 47.103H32.3215L31.7276 50.7869C31.6807 51.0777 31.7623 51.4695 32.4989 51.4695C32.5989 51.4695 32.7061 51.452 32.8063 51.4356C32.8943 51.4212 32.9769 51.4077 33.0445 51.4077L32.7784 53.2134C32.7784 53.2134 32.727 53.2278 32.7005 53.2349C32.6836 53.2399 32.6655 53.2452 32.6461 53.251C32.3738 53.3321 31.8528 53.4873 31.1928 53.4929C30.2062 53.5019 29.5051 52.9432 29.5051 51.6925ZM53.1873 45.3563C53.1873 45.3563 54.2925 44.8807 55.735 44.8807C56.4798 44.8807 58.6244 44.9617 58.6241 47.4792L57.7964 53.4123H55.9446L56.0145 52.59C56.0102 52.5904 55.9962 52.6066 55.9719 52.6345C55.8048 52.8271 55.1525 53.5789 53.8564 53.5789C53.0793 53.5789 51.8247 53.1465 51.8247 51.2572C51.8247 48.8594 53.7359 48.0623 55.5549 48.0623C55.8412 48.0623 56.4606 48.116 56.4606 48.116C56.4606 48.116 56.5304 47.9692 56.5304 47.5732C56.5304 46.9211 55.9566 46.8315 55.1734 46.8315C53.7938 46.8315 52.8809 47.2105 52.8809 47.2105L53.1873 45.3563ZM18.4406 45.3671C18.4406 45.3671 19.5513 44.8915 20.9991 44.8915C21.7466 44.8915 23.8989 44.9739 23.8989 47.4899L23.0685 53.4203H21.2087L21.2786 52.5981C21.2743 52.5985 21.2601 52.6148 21.2355 52.6429C21.0672 52.836 20.4125 53.5869 19.1125 53.5869C18.3325 53.5869 17.0754 53.1536 17.0754 51.2653C17.0754 48.8688 18.993 48.073 20.8191 48.073C21.1062 48.073 21.7274 48.1268 21.7274 48.1268C21.7274 48.1268 21.7973 47.9798 21.7973 47.5839C21.7973 46.9322 21.2209 46.8423 20.4347 46.8423C19.0501 46.8423 18.1342 47.2212 18.1342 47.2212L18.4406 45.3671ZM24.4337 47.6619C24.4337 45.5189 26.0127 44.8915 27.5673 44.8915C28.7684 44.8915 29.5051 45.0581 29.5051 45.0581L29.2417 46.931C29.2417 46.931 28.1002 46.837 27.8038 46.837C27.0576 46.837 26.6509 47.0033 26.6509 47.5302C26.6509 47.9408 27.0278 48.1135 27.4893 48.3249C28.2173 48.6585 29.1556 49.0885 29.1556 50.701C29.1556 53.4225 26.6319 53.4036 26.0327 53.3991C26.0114 53.3989 25.9926 53.3988 25.9764 53.3988C24.3248 53.3988 23.7413 53.1839 23.6325 53.1438C23.6251 53.1411 23.6199 53.1392 23.6167 53.1382L23.8989 51.2841C23.8995 51.281 23.9332 51.2912 23.9942 51.3097C24.2479 51.3865 24.9739 51.6066 25.7641 51.6066C26.3305 51.6066 27.0648 51.5503 27.0648 50.8675C27.0648 50.465 26.6572 50.2588 26.1629 50.0088C25.4013 49.6237 24.4337 49.1344 24.4337 47.6619ZM33.5255 49.8384C33.5255 47.2146 35.125 44.8919 37.2853 44.8915C39.6443 44.8915 40.3491 46.6127 40.3491 48.0246C40.3491 48.5905 40.0669 49.9781 40.0669 49.9781H35.6997C35.6997 49.9781 35.2954 51.6952 37.6025 51.6952C38.6852 51.6952 39.8841 51.1686 39.8841 51.1686L39.5079 53.2349C39.5079 53.2349 38.813 53.5869 37.237 53.5869C35.5295 53.5869 33.5255 52.8668 33.5255 49.8384ZM43.4128 46.2888C43.4128 46.2888 44.1354 44.9801 45.1087 44.9801C45.3925 44.9801 45.5279 45.0097 45.5279 45.0097C45.2395 45.5898 44.9831 46.1193 44.719 47.4899C43.4746 47.0561 43.1776 48.9338 42.7573 51.5905C42.6677 52.1566 42.5726 52.758 42.4615 53.3801H40.2282L41.5853 45.0876H43.6063L43.4128 46.2888ZM61.5078 46.2888C61.5078 46.2888 62.2303 44.9801 63.2035 44.9801C63.4872 44.9801 63.6229 45.0097 63.6229 45.0097C63.3347 45.5898 63.0786 46.1193 62.8139 47.4899C61.5687 47.0556 61.2704 48.9376 60.8486 51.5985C60.7592 52.1623 60.6643 52.761 60.5537 53.3801H58.323L59.6803 45.0876H61.7013L61.5078 46.2888ZM38.2805 48.2079C38.3038 47.9321 38.4025 46.7617 37.2745 46.7617C36.0895 46.7617 35.861 48.1155 35.861 48.2584H38.277C38.277 48.2494 38.2785 48.2321 38.2805 48.2079ZM67.6514 48.691C67.6514 47.4501 67.2498 46.9227 66.4689 46.9229C65.5158 46.9229 64.7596 48.0139 64.7596 49.6664C64.7596 50.677 65.1265 51.3217 65.9072 51.3217C67.0835 51.3217 67.6514 49.8169 67.6514 48.691ZM56.1573 49.7848C56.1045 49.7693 56.0211 49.7447 55.7377 49.7443C54.1881 49.7443 53.8753 50.4655 53.8753 51.0664C53.8753 51.3746 54.0435 51.8968 54.7003 51.8968C55.9741 51.8968 56.2376 50.1647 56.1973 49.7954C56.1666 49.7903 56.168 49.7888 56.1758 49.7901C56.1699 49.7885 56.1638 49.7867 56.1573 49.7848ZM21.4247 49.7936C21.3717 49.7779 21.2866 49.7528 21.0018 49.7524C19.4461 49.7524 19.1313 50.4739 19.1313 51.0745C19.1313 51.3824 19.3024 51.9021 19.9617 51.9021C21.2399 51.9021 21.5045 50.1727 21.4641 49.8035C21.4511 49.8013 21.4391 49.7978 21.4247 49.7936Z" fill="#F2F1F8" fill-opacity="0.2"/>
<path d="M47.0105 17.2237C46.1388 16.9061 45.2175 16.7468 44.2898 16.7531C41.2898 16.7531 39.1711 18.2644 39.1561 20.4337C39.1373 22.0275 40.6617 22.9256 41.8148 23.4581C42.998 24.0056 43.3936 24.3506 43.3898 24.84C43.3823 25.5844 42.4448 25.9219 41.573 25.9219C40.3748 25.9219 39.7205 25.755 38.7136 25.3369L38.3405 25.1625L37.9148 27.66C38.6442 27.9637 39.9586 28.2244 41.3161 28.2469C44.5055 28.2469 46.5905 26.745 46.6148 24.4369C46.6411 23.1637 45.8161 22.2019 44.0798 21.4069C43.0242 20.8912 42.3698 20.5462 42.3698 20.0231C42.3698 19.56 42.9305 19.065 44.1023 19.065C44.8823 19.0461 45.6574 19.1924 46.3767 19.4944L46.658 19.62L47.0836 17.2069L47.0105 17.2237ZM54.7955 16.9556H52.4517C51.7223 16.9556 51.173 17.1562 50.8542 17.88L46.3467 28.0912H49.5361L50.1736 26.4169L54.0661 26.4206C54.158 26.8125 54.4392 28.0912 54.4392 28.0912H57.2517L54.7955 16.9556ZM34.8417 16.8619H37.8811L35.9798 28.0031H32.9442L34.8417 16.8581V16.8619ZM27.1261 23.0025L27.4411 24.5494L30.4111 16.9556H33.6305L28.8473 28.0762H25.6355L23.0105 18.66C22.968 18.5047 22.8681 18.3714 22.7311 18.2869C21.785 17.7981 20.7825 17.4272 19.7461 17.1825L19.7873 16.9481H24.6792C25.343 16.9744 25.8773 17.1825 26.0555 17.8912L27.1242 23.0081L27.1261 23.0025ZM51.0455 24.1387L52.2567 21.0225C52.2417 21.0562 52.5061 20.3794 52.6598 19.9612L52.868 20.9231L53.5711 24.1369H51.0436L51.0455 24.1387Z" fill="#F2F1F8" fill-opacity="0.2"/>
<line x1="8" y1="35.5" x2="71" y2="35.5" stroke="#F2F1F8" stroke-opacity="0.2"/>
</svg>
