<svg width="25" height="25" viewBox="0 0 25 25" fill="none" xmlns="http://www.w3.org/2000/svg">
<path d="M2.37891 12.8145H19.3789" stroke="#8A89A4" stroke-width="1.5" stroke-miterlimit="10" stroke-linecap="round" stroke-linejoin="round"/>
<path d="M19.3789 10.4839V17.6339C19.3489 20.4839 18.5689 21.2039 15.5989 21.2039H6.15894C3.13894 21.2039 2.37891 20.4539 2.37891 17.4739V10.4839C2.37891 7.78391 3.00891 6.91391 5.37891 6.77391C5.61891 6.76391 5.87894 6.75391 6.15894 6.75391H15.5989C18.6189 6.75391 19.3789 7.50391 19.3789 10.4839Z" stroke="#8A89A4" stroke-width="1.5" stroke-linecap="round" stroke-linejoin="round"/>
<path d="M22.3789 6.9341V13.9241C22.3789 16.6241 21.7489 17.4941 19.3789 17.6341V10.4841C19.3789 7.5041 18.6189 6.7541 15.5989 6.7541H6.15894C5.87894 6.7541 5.61891 6.7641 5.37891 6.7741C5.40891 3.9241 6.18894 3.2041 9.15894 3.2041H18.5989C21.6189 3.2041 22.3789 3.9541 22.3789 6.9341Z" stroke="#8A89A4" stroke-width="1.5" stroke-linecap="round" stroke-linejoin="round"/>
<path d="M5.62891 18.0137H7.34888" stroke="#8A89A4" stroke-width="1.5" stroke-miterlimit="10" stroke-linecap="round" stroke-linejoin="round"/>
<path d="M9.48926 18.0137H12.9293" stroke="#8A89A4" stroke-width="1.5" stroke-miterlimit="10" stroke-linecap="round" stroke-linejoin="round"/>
</svg>
