<svg xmlns="http://www.w3.org/2000/svg" width="20" height="20" viewBox="0 0 20 20" fill="none">
<path d="M14.7709 7.20257C14.7048 7.13838 14.6261 7.08744 14.5394 7.05267C14.4527 7.0179 14.3597 7 14.2657 7C14.1718 7 14.0788 7.0179 13.9921 7.05267C13.9054 7.08744 13.8267 7.13838 13.7605 7.20257L8.45949 12.3114L6.23235 10.161C6.16367 10.0972 6.08259 10.047 5.99375 10.0133C5.90491 9.97956 5.81004 9.96304 5.71457 9.96463C5.61909 9.96622 5.52488 9.98589 5.4373 10.0225C5.34972 10.0592 5.2705 10.112 5.20416 10.1781C5.13782 10.2442 5.08565 10.3223 5.05064 10.4078C5.01563 10.4933 4.99846 10.5846 5.00011 10.6765C5.00176 10.7684 5.0222 10.859 5.06027 10.9433C5.09833 11.0276 5.15327 11.1039 5.22195 11.1677L7.95429 13.7974C8.02044 13.8616 8.09914 13.9126 8.18585 13.9473C8.27256 13.9821 8.36556 14 8.45949 14C8.55343 14 8.64643 13.9821 8.73314 13.9473C8.81985 13.9126 8.89855 13.8616 8.96469 13.7974L14.7709 8.20926C14.8432 8.14513 14.9008 8.0673 14.9402 7.98067C14.9796 7.89404 15 7.80049 15 7.70592C15 7.61134 14.9796 7.51779 14.9402 7.43116C14.9008 7.34453 14.8432 7.2667 14.7709 7.20257Z" fill="white"/>
</svg>