<svg width="22" height="22" viewBox="0 0 22 22" fill="none" xmlns="http://www.w3.org/2000/svg">
<path d="M16.8297 8.42308L12.5484 4.16923C12.4396 4.06101 12.292 4.00013 12.1381 4H10.2258C9.66115 4 9.11962 4.22287 8.72035 4.61958C8.32108 5.01629 8.09677 5.55435 8.09677 6.11538V7.07692H7.12903C6.56438 7.07692 6.02285 7.29979 5.62358 7.6965C5.22431 8.09322 5 8.63127 5 9.19231V16.8846C5 17.4457 5.22431 17.9837 5.62358 18.3804C6.02285 18.7771 6.56438 19 7.12903 19H12.5484C13.113 19 13.6546 18.7771 14.0538 18.3804C14.4531 17.9837 14.6774 17.4457 14.6774 16.8846V15.9231H14.871C15.4356 15.9231 15.9771 15.7002 16.3764 15.3035C16.7757 14.9068 17 14.3687 17 13.8077V8.80769C16.9939 8.66277 16.9331 8.52545 16.8297 8.42308ZM12.7419 5.96923L15.0181 8.23077H12.7419V5.96923ZM13.5161 16.8846C13.5161 17.1396 13.4142 17.3842 13.2327 17.5645C13.0512 17.7449 12.805 17.8462 12.5484 17.8462H7.12903C6.87237 17.8462 6.62622 17.7449 6.44474 17.5645C6.26325 17.3842 6.16129 17.1396 6.16129 16.8846V9.19231C6.16129 8.93729 6.26325 8.69272 6.44474 8.5124C6.62622 8.33207 6.87237 8.23077 7.12903 8.23077H8.09677V13.8077C8.09677 14.3687 8.32108 14.9068 8.72035 15.3035C9.11962 15.7002 9.66115 15.9231 10.2258 15.9231H13.5161V16.8846ZM14.871 14.7692H10.2258C9.96915 14.7692 9.723 14.6679 9.54151 14.4876C9.36002 14.3073 9.25806 14.0627 9.25806 13.8077V6.11538C9.25806 5.86037 9.36002 5.6158 9.54151 5.43547C9.723 5.25515 9.96915 5.15385 10.2258 5.15385H11.5806V8.80769C11.5827 8.96008 11.6445 9.10567 11.7529 9.21344C11.8614 9.3212 12.0079 9.38262 12.1613 9.38462H15.8387V13.8077C15.8387 14.0627 15.7368 14.3073 15.5553 14.4876C15.3738 14.6679 15.1276 14.7692 14.871 14.7692Z" fill="white" fill-opacity="0.5"/>
</svg>
