<svg width="35" height="34" viewBox="0 0 35 34" fill="none" xmlns="http://www.w3.org/2000/svg">
<g clip-path="url(#clip0_57_150)">
<path d="M17.2998 34C26.6886 34 34.2998 26.3888 34.2998 17C34.2998 7.61116 26.6886 0 17.2998 0C7.91096 0 0.299805 7.61116 0.299805 17C0.299805 26.3888 7.91096 34 17.2998 34Z" fill="#F2F1F8" fill-opacity="0.2"/>
<path d="M17.8291 4.25V13.6744L25.7947 17.2337L17.8291 4.25Z" fill="#0D1220"/>
<path d="M17.8289 4.25L9.8623 17.2337L17.8289 13.6744V4.25Z" fill="#0D1220"/>
<path d="M17.8291 23.3408V29.7445L25.8 18.7168L17.8291 23.3408Z" fill="#0D1220"/>
<path d="M17.8289 29.7445V23.3397L9.8623 18.7168L17.8289 29.7445Z" fill="#0D1220"/>
<path d="M17.8291 21.8586L25.7947 17.2335L17.8291 13.6763V21.8586Z" fill="#0D1220"/>
<path d="M9.8623 17.2335L17.8289 21.8586V13.6763L9.8623 17.2335Z" fill="#0D1220"/>
</g>
<defs>
<clipPath id="clip0_57_150">
<rect width="34" height="34" fill="white" transform="translate(0.299805)"/>
</clipPath>
</defs>
</svg>
