<svg width="20" height="20" viewBox="0 0 20 20" fill="none" xmlns="http://www.w3.org/2000/svg">
<path d="M3.373 2.51001C5.1997 0.889389 7.55803 -0.00383547 10 1.23802e-05C15.523 1.23802e-05 20 4.47701 20 10C20.0033 12.0439 19.3772 14.0393 18.207 15.715L15.5 10H18C18.0002 8.40928 17.5262 6.8546 16.6385 5.53458C15.7509 4.21457 14.4898 3.18916 13.0165 2.58936C11.5432 1.98956 9.92449 1.8426 8.36725 2.16725C6.81 2.49191 5.3849 3.27345 4.274 4.41201L3.373 2.51001ZM16.626 17.49C14.7996 19.1104 12.4416 20.0036 10 20C4.477 20 0 15.523 0 10C0 7.87501 0.663 5.90501 1.793 4.28501L4.5 10H2C2.00017 11.5904 2.4744 13.1447 3.36211 14.4644C4.24982 15.784 5.51072 16.8091 6.98379 17.4088C8.45685 18.0084 10.0752 18.1553 11.6322 17.8309C13.1892 17.5064 14.6141 16.7252 15.725 15.587L16.626 17.49ZM11.415 12.827L8.587 9.99901L5.758 12.827L4.344 11.413L8.587 7.17001L11.415 9.99901L14.243 7.17001L15.658 8.58501L11.415 12.827Z" fill="#F2F1F8"/>
</svg>
