<svg width="48" height="48" viewBox="0 0 48 48" fill="none" xmlns="http://www.w3.org/2000/svg">
<path d="M41.3972 37.1538H6.14123C5.24714 37.1522 4.39016 36.7962 3.75809 36.1639C3.12601 35.5315 2.77042 34.6744 2.76923 33.7803V13.5288C2.77002 12.6345 3.12544 11.7769 3.75756 11.1443C4.38967 10.5116 5.24688 10.1554 6.14123 10.1538H41.3972C42.2913 10.1554 43.1483 10.5114 43.7804 11.1437C44.4124 11.7761 44.768 12.6332 44.7692 13.5273V33.7788C44.7702 34.222 44.6837 34.6611 44.5146 35.0708C44.3455 35.4806 44.0973 35.8529 43.784 36.1664C43.4707 36.48 43.0986 36.7286 42.689 36.8981C42.2795 37.0675 41.8405 37.1544 41.3972 37.1538Z" fill="#00A6ED"/>
<path d="M34.8482 28.1538H8.19023C7.94581 28.1526 7.71178 28.0548 7.53923 27.8817C7.36668 27.7086 7.26962 27.4742 7.26923 27.2298V23.0778C7.26923 22.5783 7.67723 22.1538 8.19023 22.1538H34.8482C35.3462 22.1538 35.7692 22.5633 35.7692 23.0778V27.2448C35.7686 27.365 35.7443 27.4839 35.6977 27.5947C35.651 27.7055 35.583 27.8061 35.4974 27.8905C35.4119 27.975 35.3105 28.0417 35.1991 28.0869C35.0877 28.132 34.9684 28.1548 34.8482 28.1538Z" fill="#F4F4F4"/>
<path d="M37.7987 34.1538H40.4897C40.6581 34.1548 40.8249 34.1224 40.9806 34.0585C41.1363 33.9945 41.2777 33.9003 41.3967 33.7813C41.5157 33.6623 41.6099 33.5208 41.6739 33.3651C41.7378 33.2095 41.7702 33.0426 41.7692 32.8743V30.1833C41.7702 30.015 41.7378 29.8482 41.6739 29.6925C41.6099 29.5368 41.5157 29.3954 41.3967 29.2764C41.2777 29.1574 41.1363 29.0631 40.9806 28.9992C40.8249 28.9353 40.6581 28.9028 40.4897 28.9038H37.7987C37.6304 28.9028 37.4636 28.9353 37.3079 28.9992C37.1522 29.0631 37.0108 29.1574 36.8918 29.2764C36.7728 29.3954 36.6786 29.5368 36.6146 29.6925C36.5507 29.8482 36.5183 30.015 36.5192 30.1833V32.8743C36.522 33.2128 36.6577 33.5367 36.897 33.776C37.1364 34.0154 37.4603 34.1511 37.7987 34.1538Z" fill="#FFF478"/>
<path d="M44.7692 14.6538H2.76923V19.1538H44.7692V14.6538Z" fill="#321B41"/>
<path d="M8.76923 25.1538C8.76923 24.9549 8.84824 24.7641 8.9889 24.6235C9.12955 24.4828 9.32031 24.4038 9.51923 24.4038H26.0192C26.2181 24.4038 26.4089 24.4828 26.5496 24.6235C26.6902 24.7641 26.7692 24.9549 26.7692 25.1538C26.7692 25.3527 26.6902 25.5435 26.5496 25.6841C26.4089 25.8248 26.2181 25.9038 26.0192 25.9038H9.51923C9.32031 25.9038 9.12955 25.8248 8.9889 25.6841C8.84824 25.5435 8.76923 25.3527 8.76923 25.1538Z" fill="#9B9B9B"/>
</svg>
