<svg width="18" height="18" viewBox="0 0 18 18" fill="none" xmlns="http://www.w3.org/2000/svg">
<path d="M13.7698 6.89183L10.2669 3.41141C10.1779 3.32286 10.0571 3.27306 9.93118 3.27295H8.3666C7.90461 3.27295 7.46154 3.4553 7.13487 3.77988C6.80819 4.10446 6.62467 4.54469 6.62467 5.00372V5.79043H5.83288C5.37089 5.79043 4.92782 5.97278 4.60114 6.29736C4.27447 6.62194 4.09094 7.06217 4.09094 7.5212V13.8149C4.09094 14.2739 4.27447 14.7142 4.60114 15.0387C4.92782 15.3633 5.37089 15.5457 5.83288 15.5457H10.2669C10.7289 15.5457 11.172 15.3633 11.4986 15.0387C11.8253 14.7142 12.0088 14.2739 12.0088 13.8149V13.0282H12.1672C12.6292 13.0282 13.0722 12.8458 13.3989 12.5213C13.7256 12.1967 13.9091 11.7565 13.9091 11.2974V7.20652C13.9041 7.08794 13.8544 6.97559 13.7698 6.89183ZM10.4253 4.88414L12.2875 6.73449H10.4253V4.88414ZM11.0587 13.8149C11.0587 14.0236 10.9753 14.2237 10.8268 14.3712C10.6783 14.5187 10.4769 14.6016 10.2669 14.6016H5.83288C5.62288 14.6016 5.42149 14.5187 5.273 14.3712C5.12451 14.2237 5.04109 14.0236 5.04109 13.8149V7.5212C5.04109 7.31255 5.12451 7.11245 5.273 6.96491C5.42149 6.81737 5.62288 6.73449 5.83288 6.73449H6.62467V11.2974C6.62467 11.7565 6.80819 12.1967 7.13487 12.5213C7.46154 12.8458 7.90461 13.0282 8.3666 13.0282H11.0587V13.8149ZM12.1672 12.0841H8.3666C8.15661 12.0841 7.95521 12.0013 7.80672 11.8537C7.65823 11.7062 7.57481 11.5061 7.57481 11.2974V5.00372C7.57481 4.79507 7.65823 4.59497 7.80672 4.44743C7.95521 4.29989 8.15661 4.21701 8.3666 4.21701H9.47511V7.20652C9.47675 7.3312 9.52733 7.45032 9.61607 7.53849C9.70481 7.62666 9.82469 7.67691 9.95018 7.67854H12.959V11.2974C12.959 11.5061 12.8756 11.7062 12.7271 11.8537C12.5786 12.0013 12.3772 12.0841 12.1672 12.0841Z" fill="#919CFB" fill-opacity="0.5"/>
</svg>
