<svg width="20" height="20" viewBox="0 0 20 20" fill="none" xmlns="http://www.w3.org/2000/svg">
<path d="M10.075 13.475C9.59167 13.4917 9.12933 13.4127 8.688 13.238C8.24667 13.0633 7.859 12.809 7.525 12.475C7.19167 12.1417 6.93733 11.7667 6.762 11.35C6.58667 10.9333 6.49933 10.4917 6.5 10.025C6.5 9.85833 6.50833 9.69567 6.525 9.537C6.54167 9.37833 6.575 9.22433 6.625 9.075C6.69167 8.875 6.68733 8.675 6.612 8.475C6.53667 8.275 6.40767 8.13333 6.225 8.05C6.025 7.96667 5.829 7.96667 5.637 8.05C5.445 8.13333 5.316 8.275 5.25 8.475C5.16667 8.725 5.104 8.975 5.062 9.225C5.02 9.475 4.99933 9.73333 5 10C5 10.6667 5.12933 11.3043 5.388 11.913C5.64667 12.5217 6.009 13.059 6.475 13.525C6.925 13.9917 7.45433 14.35 8.063 14.6C8.67167 14.85 9.30067 14.9833 9.95 15L9.525 15.425C9.375 15.575 9.3 15.75 9.3 15.95C9.3 16.15 9.375 16.325 9.525 16.475C9.675 16.625 9.85 16.7 10.05 16.7C10.25 16.7 10.425 16.625 10.575 16.475L12.175 14.875C12.375 14.675 12.475 14.4417 12.475 14.175C12.475 13.9083 12.375 13.675 12.175 13.475L10.575 11.875C10.425 11.725 10.25 11.65 10.05 11.65C9.85 11.65 9.675 11.725 9.525 11.875C9.375 12.025 9.3 12.2 9.3 12.4C9.3 12.6 9.375 12.775 9.525 12.925L10.075 13.475ZM9.9 6.5C10.3833 6.5 10.85 6.58767 11.3 6.763C11.75 6.93833 12.1417 7.19233 12.475 7.525C12.8083 7.85833 13.0627 8.23333 13.238 8.65C13.4133 9.06667 13.5007 9.50833 13.5 9.975C13.5 10.1417 13.4917 10.304 13.475 10.462C13.4583 10.62 13.425 10.7743 13.375 10.925C13.3083 11.125 13.3127 11.329 13.388 11.537C13.4633 11.745 13.5923 11.891 13.775 11.975C13.975 12.0583 14.171 12.0583 14.363 11.975C14.555 11.8917 14.684 11.75 14.75 11.55C14.8333 11.3 14.896 11.0457 14.938 10.787C14.98 10.5283 15.0007 10.266 15 10C15 9.33333 14.879 8.69567 14.637 8.087C14.395 7.47833 14.0327 6.93267 13.55 6.45C13.0833 5.98333 12.5457 5.62933 11.937 5.388C11.3283 5.14667 10.6993 5.02567 10.05 5.025L10.5 4.575C10.6333 4.425 10.7 4.25 10.7 4.05C10.7 3.85 10.625 3.675 10.475 3.525C10.325 3.375 10.15 3.3 9.95 3.3C9.75 3.3 9.575 3.375 9.425 3.525L7.825 5.125C7.625 5.325 7.525 5.55833 7.525 5.825C7.525 6.09167 7.625 6.325 7.825 6.525L9.425 8.125C9.575 8.275 9.75 8.35 9.95 8.35C10.15 8.35 10.325 8.275 10.475 8.125C10.625 7.975 10.7 7.8 10.7 7.6C10.7 7.4 10.625 7.225 10.475 7.075L9.9 6.5ZM10 20C8.61667 20 7.31667 19.7373 6.1 19.212C4.88333 18.6867 3.825 17.9743 2.925 17.075C2.025 16.175 1.31267 15.1167 0.788 13.9C0.263333 12.6833 0.000666667 11.3833 0 10C0 8.61667 0.262667 7.31667 0.788 6.1C1.31333 4.88333 2.02567 3.825 2.925 2.925C3.825 2.025 4.88333 1.31267 6.1 0.788C7.31667 0.263333 8.61667 0.000666667 10 0C11.3833 0 12.6833 0.262667 13.9 0.788C15.1167 1.31333 16.175 2.02567 17.075 2.925C17.975 3.825 18.6877 4.88333 19.213 6.1C19.7383 7.31667 20.0007 8.61667 20 10C20 11.3833 19.7373 12.6833 19.212 13.9C18.6867 15.1167 17.9743 16.175 17.075 17.075C16.175 17.975 15.1167 18.6877 13.9 19.213C12.6833 19.7383 11.3833 20.0007 10 20ZM10 18C12.2333 18 14.125 17.225 15.675 15.675C17.225 14.125 18 12.2333 18 10C18 7.76667 17.225 5.875 15.675 4.325C14.125 2.775 12.2333 2 10 2C7.76667 2 5.875 2.775 4.325 4.325C2.775 5.875 2 7.76667 2 10C2 12.2333 2.775 14.125 4.325 15.675C5.875 17.225 7.76667 18 10 18Z" fill="#F2F1F8"/>
</svg>
