<svg width="14" height="14" viewBox="0 0 14 14" fill="none" xmlns="http://www.w3.org/2000/svg">
<path d="M6.96198 0.0371618C6.8617 0.0373673 6.76245 0.0569732 6.6699 0.094857C6.57736 0.132741 6.49333 0.188159 6.42265 0.257938C6.35196 0.327718 6.296 0.41049 6.25796 0.501515C6.21992 0.59254 6.20055 0.690031 6.20097 0.788408L6.21203 5.9777L0.917057 5.99388C0.816807 5.99419 0.717601 6.01386 0.625102 6.05178C0.532604 6.0897 0.448624 6.14512 0.377958 6.21488C0.307292 6.28464 0.251323 6.36737 0.213248 6.45835C0.175172 6.54933 0.155736 6.64678 0.156048 6.74513C0.156361 6.84348 0.176415 6.9408 0.215067 7.03155C0.25372 7.12229 0.310213 7.20468 0.38132 7.27401C0.452428 7.34333 0.536758 7.39824 0.629496 7.43559C0.722234 7.47295 0.821563 7.49201 0.921812 7.49171L6.21679 7.47553L6.23328 12.6701C6.23359 12.7685 6.25365 12.8658 6.2923 12.9565C6.33095 13.0473 6.38744 13.1297 6.45855 13.199C6.52966 13.2683 6.61399 13.3232 6.70673 13.3606C6.79946 13.3979 6.89879 13.417 6.99904 13.4167C7.09929 13.4164 7.1985 13.3967 7.291 13.3588C7.38349 13.3209 7.46747 13.2655 7.53814 13.1957C7.60881 13.1259 7.66478 13.0432 7.70285 12.9522C7.74093 12.8612 7.76036 12.7638 7.76005 12.6655L7.74356 7.47086L13.0385 7.45468C13.1388 7.45438 13.238 7.4347 13.3305 7.39678C13.423 7.35886 13.507 7.30344 13.5776 7.23368C13.6483 7.16392 13.7043 7.08119 13.7423 6.99021C13.7804 6.89923 13.7999 6.80179 13.7995 6.70344C13.7992 6.60509 13.7792 6.50776 13.7405 6.41702C13.7019 6.32627 13.6454 6.24389 13.5743 6.17456C13.5032 6.10523 13.4188 6.05033 13.3261 6.01297C13.2334 5.97562 13.134 5.95655 13.0338 5.95686L7.7388 5.97304L7.72231 0.778448C7.72103 0.374778 7.37345 0.0359045 6.96198 0.0371618Z" fill="white"/>
</svg>
