<svg width="20" height="20" viewBox="0 0 20 20" fill="none" xmlns="http://www.w3.org/2000/svg">
<g clip-path="url(#clip0_139_121)">
<path d="M0 10C0 7.34784 1.05357 4.8043 2.92893 2.92893C4.8043 1.05357 7.34784 0 10 0C12.6522 0 15.1957 1.05357 17.0711 2.92893C18.9464 4.8043 20 7.34784 20 10C20 12.6522 18.9464 15.1957 17.0711 17.0711C15.1957 18.9464 12.6522 20 10 20C7.34784 20 4.8043 18.9464 2.92893 17.0711C1.05357 15.1957 0 12.6522 0 10ZM10 1.875C7.84512 1.875 5.77849 2.73102 4.25476 4.25476C2.73102 5.77849 1.875 7.84512 1.875 10C1.875 12.1549 2.73102 14.2215 4.25476 15.7452C5.77849 17.269 7.84512 18.125 10 18.125C12.1549 18.125 14.2215 17.269 15.7452 15.7452C17.269 14.2215 18.125 12.1549 18.125 10C18.125 7.84512 17.269 5.77849 15.7452 4.25476C14.2215 2.73102 12.1549 1.875 10 1.875ZM8.65 7.60625C8.53894 7.8287 8.34531 7.99792 8.10948 8.07669C7.87366 8.15545 7.6162 8.13731 7.39375 8.02625C7.1713 7.91519 7.00208 7.72031 6.92331 7.48448C6.84455 7.24866 6.86269 6.9912 6.97375 6.76875C7.185 6.345 7.51875 5.8925 8.035 5.5475C8.55625 5.2 9.21125 5 10 5C10.7346 4.99498 11.4516 5.22492 12.0463 5.65625C12.675 6.1275 13.125 6.8625 13.125 7.8125C13.125 8.3725 12.9812 8.85 12.7137 9.25C12.4575 9.63375 12.1263 9.89125 11.8488 10.0775C11.7125 10.1675 11.5738 10.25 11.4575 10.3212L11.45 10.3262C11.3401 10.3903 11.2317 10.4569 11.125 10.5262C10.9911 10.6049 10.8739 10.7089 10.78 10.8325C10.6408 11.0364 10.4268 11.1771 10.1845 11.2242C9.9422 11.2713 9.69108 11.2209 9.48569 11.084C9.28029 10.947 9.13719 10.7346 9.08745 10.4928C9.03771 10.251 9.08534 9.99939 9.22 9.7925C9.45 9.4625 9.745 9.18125 10.085 8.96625C10.2137 8.8825 10.3437 8.80125 10.4762 8.7225L10.485 8.7175C10.61 8.64125 10.7125 8.58 10.8075 8.51625C10.9415 8.43734 11.0591 8.33336 11.1538 8.21C11.2 8.1425 11.25 8.03375 11.25 7.8125C11.2547 7.68444 11.2272 7.55723 11.17 7.44257C11.1128 7.3279 11.0277 7.22945 10.9225 7.15625C10.6516 6.9691 10.3292 6.87082 10 6.875C9.53875 6.875 9.25625 6.9875 9.075 7.10875C8.89208 7.23435 8.74549 7.40595 8.65 7.60625ZM11.25 13.75C11.25 14.0815 11.1183 14.3995 10.8839 14.6339C10.6495 14.8683 10.3315 15 10 15C9.66848 15 9.35054 14.8683 9.11612 14.6339C8.8817 14.3995 8.75 14.0815 8.75 13.75C8.75 13.4185 8.8817 13.1005 9.11612 12.8661C9.35054 12.6317 9.66848 12.5 10 12.5C10.3315 12.5 10.6495 12.6317 10.8839 12.8661C11.1183 13.1005 11.25 13.4185 11.25 13.75Z" fill="#F2F1F8"/>
</g>
<defs>
<clipPath id="clip0_139_121">
<rect width="20" height="20" fill="white"/>
</clipPath>
</defs>
</svg>
