<svg width="30" height="30" viewBox="0 0 30 30" fill="none" xmlns="http://www.w3.org/2000/svg">
<path d="M15 23.0108C14.8693 24.9476 13.9893 26.758 12.5454 28.0601C11.1016 29.3623 9.20684 30.0544 7.26097 29.9904C5.3151 29.9264 3.47024 29.1114 2.11558 27.7172C0.760917 26.323 0.00238572 24.4587 5.61805e-06 22.5176C-0.00237449 20.5765 0.751583 18.7104 2.10282 17.3129C3.45406 15.9154 5.29692 15.0959 7.24263 15.0272C9.18833 14.9584 11.0847 15.6459 12.5318 16.9446C13.9788 18.2432 14.8633 20.0515 14.9987 21.9879L15 22.0116C15.1307 20.0749 16.0107 18.2645 17.4546 16.9623C18.8984 15.6601 20.7932 14.9681 22.739 15.032C24.6849 15.096 26.5298 15.9111 27.8844 17.3053C29.2391 18.6994 29.9976 20.5637 30 22.5048C30.0024 24.4459 29.2484 26.3121 27.8972 27.7095C26.5459 29.107 24.7031 29.9266 22.7574 29.9953C20.8117 30.064 18.9153 29.3766 17.4682 28.0779C16.0212 26.7793 15.1367 24.971 15.0013 23.0346L15 23.0108ZM15.9947 22.5431C15.9948 23.3941 16.163 24.2367 16.4897 25.0228C16.8164 25.809 17.2952 26.5233 17.8987 27.1249C18.5023 27.7266 19.2189 28.2038 20.0074 28.5294C20.796 28.855 21.6412 29.0225 22.4947 29.0224C23.3482 29.0223 24.1933 28.8546 24.9818 28.5289C25.7703 28.2032 26.4867 27.7258 27.0902 27.124C27.6937 26.5223 28.1723 25.8079 28.4989 25.0217C28.8254 24.2355 28.9935 23.3928 28.9934 22.5419C28.9932 20.8233 28.3083 19.1752 27.0893 17.9601C25.8703 16.745 24.2171 16.0624 22.4934 16.0626C20.7697 16.0627 19.1166 16.7456 17.8979 17.9609C16.6791 19.1763 15.9945 20.8245 15.9947 22.5431ZM1.01038 22.5106V22.5431C1.01038 23.8246 1.39152 25.0773 2.10561 26.1428C2.8197 27.2083 3.83466 28.0388 5.02215 28.5292C6.20963 29.0196 7.51631 29.1479 8.77694 28.8979C10.0376 28.6479 11.1955 28.0308 12.1044 27.1247C13.0133 26.2185 13.6322 25.064 13.8829 23.8072C14.1337 22.5503 14.005 21.2475 13.5131 20.0636C13.0213 18.8797 12.1883 17.8677 11.1196 17.1558C10.0509 16.4438 8.79442 16.0638 7.5091 16.0638C5.79372 16.07 4.14984 16.7497 2.93347 17.9556C1.71711 19.1615 1.0262 20.7967 1.01038 22.5069V22.5106ZM5.25129 24.9943C4.92844 24.5788 4.72119 24.0857 4.65046 23.5649L4.64921 23.5498H3.94678V22.7782H4.54886V22.2405H3.94678V21.4689H4.68684C4.81353 20.8811 5.08572 20.3696 5.46327 19.9557L5.46077 19.9582C5.77812 19.5991 6.16857 19.3115 6.60611 19.1146C7.04365 18.9177 7.51825 18.8161 7.99829 18.8164H8.02212C8.63048 18.8201 9.20747 18.9427 9.73429 19.164L9.70419 19.1528L9.40315 20.4284C9.0196 20.2298 8.59352 20.1268 8.16135 20.1282H8.12749C7.59188 20.1282 7.11147 20.3596 6.77907 20.7273L6.77782 20.7285C6.61601 20.9261 6.48932 21.16 6.41155 21.4151L6.40779 21.4288H9.1573V22.2017H6.22717V22.7019H9.19116V23.4748H6.3965C6.44542 23.775 6.57838 24.0376 6.76778 24.2477L6.76653 24.2464C6.95314 24.4403 7.17951 24.5917 7.43019 24.6903C7.68087 24.789 7.94995 24.8325 8.21905 24.8179H8.21404C8.66421 24.8151 9.10781 24.7099 9.51102 24.5103L9.49346 24.5178L9.73178 25.8347C9.19265 26.1195 8.59212 26.2693 7.98198 26.2711L7.89418 26.2724C7.38681 26.2726 6.88594 26.1585 6.42896 25.9387C5.97198 25.7189 5.5707 25.3991 5.25505 25.003L5.25004 24.9968L5.25129 24.9943ZM20.0349 26.1023V25.2294C20.701 24.9618 21.1764 24.3527 21.2466 23.6249V23.6174C21.2546 23.4673 21.2428 23.3167 21.2115 23.1697L21.214 23.1809H20.1365V22.0404H21.012C20.9444 21.7607 20.9107 21.4739 20.9117 21.1862V21.1312C20.9117 20.8191 20.9776 20.5104 21.105 20.2253C21.2324 19.9401 21.4186 19.6849 21.6514 19.4762C21.8841 19.2674 22.1584 19.1098 22.4562 19.0136C22.7541 18.9174 23.0689 18.8847 23.3802 18.9177L23.3702 18.9164L23.4517 18.9152C23.887 18.9152 24.2984 19.014 24.6659 19.1915L24.6496 19.184L24.3849 20.4259C24.0939 20.272 23.7653 20.2027 23.4367 20.2258H23.4417C23.305 20.2108 23.1667 20.2267 23.037 20.2723C22.9073 20.318 22.7896 20.3921 22.6925 20.4893C22.5955 20.5865 22.5217 20.7042 22.4766 20.8338C22.4315 20.9633 22.4162 21.1013 22.4319 21.2375V21.2338C22.4319 21.5201 22.4696 21.7978 22.5373 22.0629L22.5323 22.0391H24.0475V23.1797H22.6979V23.1997C22.6979 23.4673 22.6615 23.7262 22.5925 23.9725L22.5975 23.9525C22.4854 24.2494 22.3009 24.5137 22.0607 24.7216L22.0582 24.7241V24.7579H24.9544V26.101L20.0349 26.1023ZM15 7.97128C14.8724 9.90792 13.995 11.7193 12.5529 13.023C11.1108 14.3267 9.217 15.0206 7.27138 14.9582C5.32575 14.8957 3.48061 14.0819 2.12558 12.6885C0.77054 11.2951 0.0116818 9.43119 0.00924549 7.49038C0.00680916 5.54957 0.760985 3.68378 2.11252 2.287C3.46405 0.890211 5.30715 0.0717709 7.25261 0.00449978C9.19806 -0.0627713 11.0936 0.626393 12.539 1.92647C13.9843 3.22654 14.8663 5.03575 14.9987 6.97206L15 6.99457C15.1274 5.06585 16.0016 3.26197 17.438 1.9638C18.8744 0.665632 20.7605 -0.025216 22.6982 0.0371217C24.6359 0.0994593 26.4735 0.910103 27.8229 2.29789C29.1724 3.68569 29.9281 5.542 29.9305 7.47491C29.9329 9.40781 29.1819 11.266 27.8359 12.6572C26.49 14.0483 24.6545 14.8636 22.7169 14.9307C20.7794 14.9979 18.8915 14.3118 17.4519 13.0172C16.0122 11.7226 15.1335 9.92094 15.0013 7.99254L15 7.97128ZM15.9947 7.47105C15.9946 8.322 16.1626 9.16464 16.4892 9.95085C16.8157 10.7371 17.2944 11.4514 17.8979 12.0532C18.5013 12.655 19.2178 13.1324 20.0063 13.4581C20.7948 13.7838 21.6399 13.9515 22.4934 13.9516C23.3469 13.9517 24.1921 13.7841 24.9806 13.4586C25.7692 13.133 26.4857 12.6558 27.0893 12.0541C27.6929 11.4524 28.1717 10.7382 28.4984 9.95201C28.8251 9.16586 28.9933 8.32325 28.9934 7.4723C28.9937 5.75372 28.3093 4.10539 27.0907 2.88994C26.4873 2.28811 25.7709 1.81066 24.9824 1.48486C24.1939 1.15907 23.3488 0.991296 22.4953 0.991132C20.7716 0.9908 19.1183 1.67319 17.8992 2.88817C16.6801 4.10316 15.995 5.75247 15.9947 7.47105ZM1.01038 7.47105C1.01071 9.18946 1.69571 10.8374 2.91469 12.0522C4.13368 13.2671 5.78678 13.9494 7.51035 13.9491C9.23392 13.9488 10.8868 13.2658 12.1053 12.0505C13.3238 10.8351 14.0082 9.18696 14.0078 7.46855C14.0078 5.75035 13.3233 4.10251 12.1048 2.88744C10.8864 1.67237 9.2337 0.989588 7.51035 0.989256C5.7885 0.995187 4.13885 1.67969 2.92119 2.89347C1.70353 4.10726 1.01666 5.75184 1.01038 7.46855V7.47105ZM7.07133 11.8731V10.4574C6.62017 10.4314 6.18567 10.2783 5.81825 10.016L5.82578 10.021C5.59421 9.83878 5.40709 9.6066 5.27847 9.3419C5.14986 9.07721 5.0831 8.78689 5.08321 8.49278L5.08572 8.40649V8.41024H6.19706C6.1747 8.6737 6.25104 8.93609 6.41134 9.14672C6.57165 9.35736 6.80454 9.50131 7.06506 9.55077L7.07133 9.55202V7.80621C6.92607 7.76832 6.77966 7.73495 6.63232 7.70616C6.26926 7.65967 5.9356 7.48298 5.69369 7.2091C5.45177 6.93523 5.31814 6.5829 5.31777 6.21796V6.1867C5.31777 5.65144 5.58244 5.17872 5.98884 4.88984L5.99386 4.88608C6.31036 4.66573 6.6775 4.52852 7.0613 4.48715L7.07133 4.4859V3.07273H7.94686V4.51716C8.38212 4.55093 8.77598 4.70975 9.09709 4.95737L9.09207 4.95362C9.50349 5.26501 9.7669 5.75399 9.7669 6.303L9.76565 6.36678V6.36428H8.65431V6.33802C8.65443 6.13087 8.5864 5.9294 8.46066 5.7645C8.33491 5.59959 8.15839 5.48036 7.95815 5.42509L7.95188 5.42384V6.96831C8.22156 7.03584 8.45361 7.10337 8.75967 7.16841C9.12468 7.25845 9.42949 7.47355 9.63269 7.76369L9.63645 7.76869C9.8452 8.03687 9.95226 8.36993 9.93875 8.70913C9.93875 9.27189 9.64523 9.76587 9.20371 10.0473L9.19744 10.051C8.82764 10.2934 8.39902 10.4317 7.9569 10.4512H7.95188V11.8606L7.07133 11.8731ZM7.94561 9.58704C8.51884 9.51951 8.78852 9.25063 8.78852 8.78041L8.78978 8.73289C8.78979 8.60092 8.74743 8.47241 8.66887 8.36619C8.59032 8.25997 8.47972 8.18162 8.35327 8.14261L8.3495 8.14136C8.22528 8.08173 8.0943 8.03722 7.9594 8.0088L7.94812 8.0063L7.94561 9.58704ZM6.43162 6.02537C6.43162 6.36178 6.63232 6.59689 7.07133 6.69693V5.3538C6.63357 5.4551 6.43162 5.65645 6.43162 6.02537ZM21.6279 11.4879V7.35849C21.1049 7.54233 20.5893 7.73242 20.0688 7.92001V7.2547C20.5906 7.06461 21.1136 6.87702 21.6279 6.68068V6.32801C21.1086 6.50434 20.5881 6.70194 20.0688 6.88702V6.22421C20.5881 6.03037 21.1149 5.84528 21.6279 5.64644V3.19279H22.4658V5.3413C23.3112 5.03615 24.1642 4.71475 25.0171 4.40836V5.09743C24.1642 5.40258 23.3188 5.71272 22.4658 6.01787V6.37303C23.3175 6.06539 24.1717 5.74524 25.0171 5.44009V6.12542C24.1717 6.43806 23.3163 6.74196 22.4658 7.0496V10.61C23.2624 10.5071 23.9943 10.1188 24.5249 9.51753C25.0555 8.91627 25.3486 8.1431 25.3495 7.34224H26.22V7.47355C26.2023 8.08197 26.0512 8.67914 25.7773 9.22312L25.7886 9.19936C25.5548 9.6604 25.2395 10.0756 24.8578 10.4249L24.8541 10.4274C24.4205 10.8248 23.9065 11.1247 23.3466 11.3068C22.7868 11.4889 22.1943 11.5489 21.6091 11.4829L21.6279 11.4842V11.4879Z" fill="#FF7610"/>
</svg>
