<svg width="30" height="30" viewBox="0 0 30 30" fill="none" xmlns="http://www.w3.org/2000/svg">
<g clip-path="url(#clip0_49_81)">
<path d="M19.2859 16.0714C24.6115 16.0714 28.9288 14.1526 28.9288 11.7857C28.9288 9.41878 24.6115 7.5 19.2859 7.5C13.9603 7.5 9.64307 9.41878 9.64307 11.7857C9.64307 14.1526 13.9603 16.0714 19.2859 16.0714Z" stroke="#FF7610" stroke-linecap="round" stroke-linejoin="round"/>
<path d="M9.64307 11.7856V24.6428C9.64307 26.9999 13.9288 28.9285 19.2859 28.9285C24.6431 28.9285 28.9288 26.9999 28.9288 24.6428V11.7856" stroke="#FF7610" stroke-linecap="round" stroke-linejoin="round"/>
<path d="M28.9287 18.2144C28.9287 20.5715 24.643 22.5001 19.2858 22.5001C13.9287 22.5001 9.64296 20.5715 9.64296 18.2144M19.0715 3.2144C16.5676 1.66913 13.653 0.921789 10.7144 1.07154C5.37868 1.07154 1.07153 3.00011 1.07153 5.35725C1.07153 6.62154 2.31439 7.75725 4.28582 8.57154" stroke="#FF7610" stroke-linecap="round" stroke-linejoin="round"/>
<path d="M4.28582 21.4288C2.31439 20.6146 1.07153 19.4788 1.07153 18.2146V5.35742" stroke="#FF7610" stroke-linecap="round" stroke-linejoin="round"/>
<path d="M4.28582 14.9999C2.31439 14.1856 1.07153 13.0499 1.07153 11.7856" stroke="#FF7610" stroke-linecap="round" stroke-linejoin="round"/>
</g>
<defs>
<clipPath id="clip0_49_81">
<rect width="30" height="30" fill="white"/>
</clipPath>
</defs>
</svg>
