<svg width="34" height="34" viewBox="0 0 34 34" fill="none" xmlns="http://www.w3.org/2000/svg">
<path d="M17.0002 2.8335C24.8244 2.8335 31.1668 9.17591 31.1668 17.0002C31.1668 24.8244 24.8244 31.1668 17.0002 31.1668C14.6737 31.1705 12.3824 30.5987 10.3305 29.5022L2.83351 31.1668L4.49951 23.6727C3.40212 21.62 2.82978 19.3277 2.83351 17.0002C2.83351 9.17591 9.17593 2.8335 17.0002 2.8335ZM17.0002 5.66683C13.9944 5.66683 11.1117 6.86087 8.9863 8.98629C6.86089 11.1117 5.66685 13.9944 5.66685 17.0002C5.66685 18.8914 6.12868 20.709 6.99851 22.3353L7.49435 23.2618L6.56501 27.4353L10.7413 26.5088L11.6664 27.0032C13.3073 27.8801 15.1397 28.3371 17.0002 28.3335C20.006 28.3335 22.8886 27.1395 25.0141 25.014C27.1395 22.8886 28.3335 20.006 28.3335 17.0002C28.3335 13.9944 27.1395 11.1117 25.0141 8.98629C22.8886 6.86087 20.006 5.66683 17.0002 5.66683ZM17.0002 9.91683C18.1274 9.91683 19.2084 10.3646 20.0054 11.1616C20.8024 11.9587 21.2502 13.0397 21.2502 14.1668V15.5835H22.6668V22.6668H11.3335V15.5835H12.7502V14.1668C12.7502 13.0397 13.1979 11.9587 13.995 11.1616C14.792 10.3646 15.873 9.91683 17.0002 9.91683ZM19.8335 18.4168H14.1668V19.8335H19.8335V18.4168ZM17.0002 12.7502C16.2182 12.7502 15.5835 13.3877 15.5835 14.1668V15.5835H18.4168V14.1668C18.4168 13.7911 18.2676 13.4308 18.0019 13.1651C17.7362 12.8994 17.3759 12.7502 17.0002 12.7502Z" fill="#FF7610"/>
</svg>
