<svg width="30" height="20" viewBox="0 0 30 20" fill="none" xmlns="http://www.w3.org/2000/svg">
<g clip-path="url(#clip0_161_28)">
<path d="M29.7326 16.5662C29.652 16.4341 29.1531 15.3733 26.7529 13.1928C24.2404 10.9096 24.5778 11.2804 27.6042 7.33253C29.4476 4.92821 30.1846 3.45992 29.9539 2.83221C29.7344 2.23388 28.3788 2.39174 28.3788 2.39174L23.871 2.41742C23.871 2.41742 23.5371 2.37338 23.2878 2.51837C23.0458 2.66152 22.8902 2.9919 22.8902 2.9919C22.8902 2.9919 22.1758 4.85295 21.2232 6.43504C19.215 9.77357 18.4105 9.94977 18.0824 9.74236C17.3192 9.25967 17.5105 7.80056 17.5105 6.7654C17.5105 3.52965 18.0111 2.18066 16.5335 1.83194C16.0422 1.71632 15.6822 1.63923 14.4277 1.62639C12.8189 1.60987 11.4556 1.63189 10.6849 2.0008C10.1712 2.24674 9.7755 2.79551 10.0174 2.82672C10.3156 2.86525 10.9906 3.00475 11.3488 3.48194C11.8119 4.09678 11.795 5.48066 11.795 5.48066C11.795 5.48066 12.0613 9.28903 11.1744 9.76255C10.5649 10.0874 9.7305 9.42485 7.93975 6.39466C7.02281 4.84378 6.32901 3.12771 6.32901 3.12771C6.32901 3.12771 6.19586 2.80836 5.95774 2.63767C5.66896 2.43028 5.26392 2.36421 5.26392 2.36421L0.977365 2.38989C0.977365 2.38989 0.334193 2.40825 0.0979258 2.68171C-0.11209 2.92583 0.0810495 3.42871 0.0810495 3.42871C0.0810495 3.42871 3.43754 11.1134 7.23656 14.9878C10.7225 18.5393 14.679 18.3062 14.679 18.3062H16.4716C16.4716 18.3062 17.0135 18.2475 17.2892 17.9556C17.5442 17.6877 17.5348 17.1848 17.5348 17.1848C17.5348 17.1848 17.4992 14.83 18.6168 14.4831C19.7174 14.1417 21.1313 16.759 22.6295 17.7666C23.7621 18.5282 24.6228 18.3612 24.6228 18.3612L28.6301 18.3062C28.6301 18.3062 30.7264 18.1795 29.7326 16.5662Z" fill="#F2F1F8" fill-opacity="0.4"/>
</g>
<defs>
<clipPath id="clip0_161_28">
<rect width="30" height="19" fill="white" transform="translate(0 0.5)"/>
</clipPath>
</defs>
</svg>
