<svg width="28" height="28" viewBox="0 0 28 28" fill="none" xmlns="http://www.w3.org/2000/svg">
<path d="M0.571254 18.0259C2.30224 23.7939 7.65587 28 13.991 28C21.7279 28 28 21.7319 28 14C28 6.26806 21.7279 0 13.991 0C6.56711 0 0.492016 5.77194 0.012207 13.0699C0.920166 14.5911 1.27258 15.5321 0.570379 18.0259H0.571254Z" fill="#F2F1F8" fill-opacity="0.2"/>
<path d="M13.2691 10.4936L13.2704 10.5627L9.84259 15.5393C9.28748 15.5139 8.73062 15.6115 8.20178 15.8289C7.97157 15.9224 7.75178 16.0397 7.54599 16.1789L0.0183323 13.0784C0.0183323 13.0784 -0.155905 15.9422 0.569937 18.0764L5.89161 20.2709C6.15428 21.4644 6.97731 22.5109 8.18646 23.014C9.13774 23.409 10.207 23.4105 11.1594 23.0183C12.1118 22.626 12.8695 21.872 13.266 20.9219C13.4776 20.4158 13.5796 19.8707 13.5655 19.3224L18.4656 15.8202L18.586 15.8224C21.5213 15.8224 23.9072 13.431 23.9072 10.4936C23.9072 7.55623 21.5257 5.17361 18.586 5.16748C15.652 5.16748 13.2647 7.55623 13.2647 10.4936H13.2691ZM12.4461 20.578C11.8095 22.1092 10.0532 22.8298 8.52662 22.1941C7.8492 21.9096 7.30012 21.3861 6.98388 20.7232L8.71618 21.4407C8.98378 21.5521 9.27072 21.6096 9.56058 21.61C9.85044 21.6105 10.1376 21.5539 10.4055 21.4434C10.6735 21.3329 10.917 21.1708 11.1223 20.9662C11.3275 20.7617 11.4904 20.5187 11.6016 20.2512C11.8268 19.7107 11.8282 19.1029 11.6053 18.5614C11.3824 18.0199 10.9536 17.589 10.413 17.3632L8.61811 16.6217C9.30893 16.3592 10.0943 16.3504 10.8289 16.6554C11.5731 16.9629 12.1423 17.5422 12.447 18.2829C12.7516 19.0235 12.7499 19.8404 12.4426 20.578M18.5908 14.0439C17.6502 14.0414 16.749 13.6664 16.0845 13.0011C15.42 12.3358 15.0464 11.4345 15.0456 10.4945C15.0467 9.55465 15.4203 8.65352 16.0848 7.98842C16.7492 7.32333 17.6503 6.94846 18.5908 6.94592C19.5314 6.94823 20.4327 7.32299 21.0973 7.98812C21.762 8.65324 22.1358 9.5545 22.1368 10.4945C22.136 11.4346 21.7623 12.3361 21.0977 13.0014C20.433 13.6667 19.5315 14.0416 18.5908 14.0439ZM15.9343 10.4888C15.9337 9.78254 16.2138 9.10494 16.7129 8.60493C17.212 8.10491 17.8893 7.82339 18.596 7.82223C20.0648 7.82223 21.2595 9.01661 21.2595 10.4888C21.2598 11.1952 20.9795 11.8728 20.48 12.3727C19.9806 12.8726 19.3029 13.1538 18.596 13.1545C17.8894 13.1534 17.2121 12.8721 16.7129 12.3722C16.2137 11.8724 15.934 11.195 15.9343 10.4888Z" fill="#F2F1F8" fill-opacity="0.4"/>
</svg>
