<svg width="32" height="32" viewBox="0 0 32 32" fill="none" xmlns="http://www.w3.org/2000/svg">
<path d="M16 30L9.82401 26.707C8.06334 25.7703 6.59097 24.3719 5.56493 22.6617C4.53888 20.9516 3.99789 18.9943 4.00001 17V4C4.00054 3.46973 4.21142 2.96133 4.58638 2.58637C4.96134 2.21141 5.46974 2.00053 6.00001 2H26C26.5303 2.00053 27.0387 2.21141 27.4136 2.58637C27.7886 2.96133 27.9995 3.46973 28 4V17C28.0021 18.9943 27.4611 20.9516 26.4351 22.6617C25.409 24.3719 23.9367 25.7703 22.176 26.707L16 30ZM6.00001 4V17C5.99835 18.6318 6.44111 20.2333 7.28077 21.6325C8.12043 23.0317 9.32528 24.1758 10.766 24.942L16 27.733L21.234 24.943C22.6749 24.1767 23.8798 23.0324 24.7195 21.633C25.5592 20.2336 26.0018 18.632 26 17V4H6.00001Z" fill="#FF7610"/>
<path d="M16 25.277V6H24V16.805C23.9999 18.0725 23.6557 19.3162 23.0041 20.4034C22.3524 21.4906 21.4178 22.3805 20.3 22.978L16 25.277Z" fill="#FF7610"/>
</svg>
