<svg width="21" height="21" viewBox="0 0 21 21" fill="none" xmlns="http://www.w3.org/2000/svg">
<path d="M9.83048 2.07741C9.50848 2.21041 9.22061 2.49916 8.64398 3.07491C8.06736 3.65241 7.77861 3.94029 7.64648 4.26141C7.5585 4.47377 7.51322 4.70137 7.51322 4.93123C7.51322 5.16108 7.5585 5.38869 7.64648 5.60104C7.77861 5.92304 8.06648 6.21091 8.64398 6.78754C9.21973 7.36416 9.50848 7.65291 9.83048 7.78504C10.2591 7.96248 10.7406 7.96248 11.1692 7.78504C11.4912 7.65291 11.7791 7.36504 12.3557 6.78754C12.9332 6.21091 13.2202 5.92304 13.3532 5.60104C13.5307 5.17243 13.5307 4.6909 13.3532 4.26229C13.2202 3.94029 12.9332 3.65241 12.3557 3.07579C11.7791 2.49829 11.4912 2.21041 11.1692 2.07741C10.7406 1.89998 10.2591 1.89998 9.83048 2.07741ZM4.26111 7.64591C3.93998 7.77891 3.65123 8.06679 3.07548 8.64341C2.49798 9.22091 2.21011 9.50879 2.07711 9.82991C1.98913 10.0423 1.94385 10.2699 1.94385 10.4997C1.94385 10.7296 1.98913 10.9572 2.07711 11.1695C2.21011 11.4915 2.49886 11.7794 3.07461 12.356C3.65211 12.9327 3.93998 13.2205 4.26111 13.3535C4.47346 13.4415 4.70106 13.4868 4.93092 13.4868C5.16077 13.4868 5.38838 13.4415 5.60073 13.3535C5.92273 13.2205 6.21061 12.9327 6.78723 12.356C7.36473 11.7794 7.65173 11.4915 7.78473 11.1695C7.96217 10.7409 7.96217 10.2594 7.78473 9.83079C7.65173 9.50879 7.36473 9.22004 6.78723 8.64341C6.21061 8.06679 5.92273 7.77891 5.60073 7.64591C5.17212 7.46848 4.68972 7.46848 4.26111 7.64591ZM14.2125 8.64341C13.6359 9.22091 13.348 9.50879 13.215 9.82991C13.127 10.0423 13.0817 10.2699 13.0817 10.4997C13.0817 10.7296 13.127 10.9572 13.215 11.1695C13.348 11.4915 13.6359 11.7794 14.2125 12.356C14.7891 12.9327 15.0779 13.2205 15.399 13.3535C15.8276 13.531 16.3091 13.531 16.7377 13.3535C17.0597 13.2205 17.3485 12.9327 17.9251 12.356C18.5017 11.7794 18.7887 11.4915 18.9226 11.1695C19.1 10.7409 19.1 10.2594 18.9226 9.83079C18.7887 9.50879 18.5017 9.22004 17.9251 8.64341C17.3476 8.06679 17.0597 7.77891 16.7386 7.64591C16.5263 7.55794 16.2986 7.51265 16.0688 7.51265C15.8389 7.51265 15.6113 7.55794 15.399 7.64591C15.0779 7.77891 14.7891 8.06679 14.2125 8.64341ZM9.83048 13.2144C9.50848 13.3474 9.22061 13.6362 8.64398 14.2119C8.06736 14.7894 7.77861 15.0773 7.64648 15.3993C7.46904 15.8279 7.46904 16.3094 7.64648 16.738C7.77861 17.06 8.06648 17.3479 8.64398 17.9245C9.21973 18.5012 9.50848 18.7899 9.83048 18.922C10.2591 19.0995 10.7406 19.0995 11.1692 18.922C11.4912 18.7899 11.7791 18.502 12.3557 17.9245C12.9332 17.3479 13.2202 17.06 13.3532 16.738C13.5309 16.3093 13.5309 15.828 13.3532 15.3993C13.2202 15.0773 12.9332 14.7885 12.3557 14.2128C11.7791 13.6353 11.4912 13.3474 11.1692 13.2144C10.7406 13.037 10.2591 13.037 9.83048 13.2144Z" stroke="white" stroke-linecap="round" stroke-linejoin="round"/>
</svg>
