<svg width="28" height="30" viewBox="0 0 28 30" fill="none" xmlns="http://www.w3.org/2000/svg">
<path d="M19.0909 10.9091C27.2727 10.9091 27.2727 16.3636 27.2727 16.3636V19.0909H19.0909V16.3636C19.0909 16.3636 19.0909 14.0591 17.5227 12C17.2909 11.6864 17.0045 11.3864 16.7045 11.1C17.4136 10.9909 18.1909 10.9091 19.0909 10.9091ZM0 16.3636C0 16.3636 0 10.9091 8.18182 10.9091C16.3636 10.9091 16.3636 16.3636 16.3636 16.3636V19.0909H0V16.3636ZM9.54545 21.8182V24.5455H17.7273V21.8182L21.8182 25.9091L17.7273 30V27.2727H9.54545V30L5.45455 25.9091L9.54545 21.8182ZM8.18182 0C5.91818 0 4.09091 1.82727 4.09091 4.09091C4.09091 6.35455 5.91818 8.18182 8.18182 8.18182C10.4455 8.18182 12.2727 6.35455 12.2727 4.09091C12.2727 1.82727 10.4455 0 8.18182 0ZM19.0909 0C16.8273 0 15 1.82727 15 4.09091C15 6.35455 16.8273 8.18182 19.0909 8.18182C21.3545 8.18182 23.1818 6.35455 23.1818 4.09091C23.1818 1.82727 21.3545 0 19.0909 0Z" fill="#FF7610"/>
</svg>
