<svg width="34" height="34" viewBox="0 0 34 34" fill="none" xmlns="http://www.w3.org/2000/svg">
<path d="M30.6677 22.8436C30.8081 23.0872 30.8462 23.3764 30.7738 23.648C30.7013 23.9195 30.5242 24.1513 30.2812 24.2926L17.5312 31.7301C17.3688 31.8249 17.1841 31.8748 16.996 31.8748C16.8079 31.8748 16.6232 31.8249 16.4608 31.7301L3.71078 24.2926C3.47131 24.1487 3.29816 23.9163 3.2288 23.6457C3.15945 23.375 3.19949 23.088 3.34024 22.8466C3.48098 22.6053 3.71112 22.4291 3.98083 22.3562C4.25053 22.2833 4.53809 22.3196 4.78125 22.4572L17 29.5826L29.2188 22.4572C29.4623 22.3168 29.7515 22.2787 30.0231 22.3511C30.2946 22.4236 30.5264 22.6007 30.6677 22.8436ZM29.2188 16.0822L17 23.2076L4.78125 16.0822C4.53932 15.9617 4.26059 15.938 4.00178 16.0158C3.74297 16.0936 3.52354 16.2671 3.38814 16.501C3.25275 16.7349 3.21157 17.0116 3.27299 17.2748C3.33441 17.5379 3.49381 17.7678 3.71875 17.9176L16.4688 25.3551C16.6312 25.4499 16.8159 25.4998 17.004 25.4998C17.1921 25.4998 17.3768 25.4499 17.5392 25.3551L30.2892 17.9176C30.4117 17.8483 30.5192 17.7554 30.6054 17.6443C30.6917 17.5331 30.755 17.4059 30.7917 17.2701C30.8284 17.1343 30.8378 16.9925 30.8193 16.853C30.8008 16.7135 30.7547 16.5791 30.6838 16.4576C30.6129 16.3361 30.5186 16.2298 30.4063 16.145C30.2941 16.0602 30.1661 15.9986 30.0298 15.9636C29.8935 15.9287 29.7516 15.9212 29.6124 15.9415C29.4731 15.9619 29.3394 16.0097 29.2188 16.0822ZM3.1875 10.6249C3.18792 10.4388 3.23722 10.2561 3.33045 10.095C3.42368 9.93396 3.55758 9.80021 3.71875 9.70716L16.4688 2.26966C16.6312 2.17492 16.8159 2.125 17.004 2.125C17.1921 2.125 17.3768 2.17492 17.5392 2.26966L30.2892 9.70716C30.4496 9.80073 30.5827 9.93471 30.6752 10.0957C30.7676 10.2568 30.8163 10.4392 30.8163 10.6249C30.8163 10.8106 30.7676 10.993 30.6752 11.1541C30.5827 11.3151 30.4496 11.4491 30.2892 11.5426L17.5392 18.9801C17.3768 19.0749 17.1921 19.1248 17.004 19.1248C16.8159 19.1248 16.6312 19.0749 16.4688 18.9801L3.71875 11.5426C3.55758 11.4496 3.42368 11.3158 3.33045 11.1548C3.23722 10.9937 3.18792 10.811 3.1875 10.6249ZM6.35906 10.6249L17 16.8326L27.6409 10.6249L17 4.41724L6.35906 10.6249Z" fill="#FF7610"/>
</svg>
