<svg width="62" height="62" viewBox="0 0 62 62" fill="none" xmlns="http://www.w3.org/2000/svg">
<path fill-rule="evenodd" clip-rule="evenodd" d="M29.8242 0.160067C28.9362 0.448067 28.4242 0.960067 28.1762 1.79607C28.0362 2.26407 28.0122 3.35207 28.0122 9.03207C28.0122 16.5561 28.0042 16.4601 28.7722 17.2281C29.8002 18.2521 32.2002 18.2521 33.2282 17.2281C33.9962 16.4601 33.9882 16.5561 33.9882 9.03207C33.9882 1.75207 33.9762 1.62407 33.3842 0.920067C32.8882 0.332067 32.3562 0.136067 31.1602 0.104067C30.7141 0.078926 30.2667 0.0976828 29.8242 0.160067ZM10.0122 8.06407C9.38023 8.35207 8.44823 9.26407 8.12423 9.91207C7.95895 10.236 7.86881 10.593 7.8605 10.9566C7.85219 11.3202 7.92593 11.6809 8.07623 12.0121C8.37223 12.6721 17.6682 22.0001 18.4002 22.3721C19.4362 22.9041 20.5002 22.6441 21.5722 21.5961C22.6282 20.5641 22.9082 19.4441 22.3722 18.4001C22.0002 17.6681 12.6722 8.37207 12.0122 8.07607C11.6968 7.9395 11.3571 7.86804 11.0135 7.86598C10.6698 7.86392 10.3292 7.93129 10.0122 8.06407ZM50.4122 8.12807C49.9202 8.35607 49.0802 9.14407 45.0722 13.1641C41.3882 16.8561 40.2642 18.0481 40.0842 18.4401C39.9347 18.7651 39.8576 19.1187 39.8583 19.4765C39.8589 19.8343 39.9374 20.1876 40.0882 20.5121C40.3682 21.1121 41.2882 22.0561 41.9082 22.3801C42.5362 22.7081 43.4682 22.7041 44.1202 22.3721C44.7882 22.0281 54.0282 12.7881 54.3722 12.1201C54.5361 11.7762 54.6221 11.4003 54.6242 11.0194C54.6262 10.6385 54.5443 10.2617 54.3842 9.91607C53.9415 9.1758 53.3162 8.56154 52.5682 8.13207C52.2372 7.95325 51.867 7.85928 51.4907 7.85858C51.1145 7.85789 50.7439 7.95048 50.4122 8.12807ZM1.79623 28.1681C0.616227 28.5401 0.0322266 29.4801 0.0322266 30.9961C0.0362266 32.5441 0.612227 33.4721 1.79223 33.8241C2.26423 33.9641 3.31623 33.9881 9.03223 33.9881C14.9882 33.9881 15.7842 33.9681 16.2722 33.8081C16.6307 33.6903 16.9565 33.4899 17.2233 33.2231C17.4901 32.9563 17.6904 32.6305 17.8082 32.2721C18.1522 31.2121 17.9802 29.7081 17.4322 28.9641C17.2126 28.7253 16.9543 28.5251 16.6682 28.3721L16.1202 28.0681L9.18823 28.0441C3.60823 28.0281 2.16423 28.0521 1.79623 28.1681ZM45.9802 28.1121C45.4393 28.2611 44.9505 28.5574 44.5682 28.9681C44.0202 29.7081 43.8482 31.2121 44.1922 32.2721C44.4242 32.9921 45.0082 33.5761 45.7282 33.8081C46.2162 33.9681 47.0122 33.9881 52.9682 33.9881C58.6842 33.9881 59.7362 33.9641 60.2082 33.8241C61.3882 33.4721 61.9642 32.5441 61.9682 30.9961C61.9682 29.4561 61.3802 28.5321 60.1602 28.1641C59.7482 28.0401 58.4562 28.0161 52.9842 28.0241C49.3122 28.0321 46.1602 28.0721 45.9802 28.1121ZM18.4122 40.1281C17.9202 40.3561 17.0802 41.1441 13.0722 45.1641C9.38823 48.8561 8.26423 50.0481 8.08423 50.4401C7.93467 50.7651 7.85756 51.1187 7.85825 51.4765C7.85895 51.8343 7.93742 52.1876 8.08823 52.5121C8.36823 53.1121 9.28823 54.0561 9.90823 54.3801C10.5362 54.7081 11.4682 54.7041 12.1202 54.3721C12.7882 54.0281 22.0282 44.7881 22.3722 44.1201C22.5361 43.7762 22.6221 43.4004 22.6242 43.0194C22.6262 42.6385 22.5443 42.2617 22.3842 41.9161C21.9415 41.1758 21.3162 40.5615 20.5682 40.1321C20.2372 39.9532 19.867 39.8593 19.4907 39.8586C19.1145 39.8579 18.7439 39.9505 18.4122 40.1281ZM42.0122 40.0641C41.3802 40.3521 40.4482 41.2641 40.1242 41.9121C39.959 42.236 39.8688 42.593 39.8605 42.9566C39.8522 43.3202 39.9259 43.6809 40.0762 44.0121C40.3722 44.6721 49.6682 54.0001 50.4002 54.3721C51.4362 54.9041 52.5002 54.6441 53.5722 53.5961C54.6282 52.5641 54.9082 51.4441 54.3722 50.4001C54.0002 49.6681 44.6722 40.3721 44.0122 40.0761C43.6968 39.9395 43.3571 39.868 43.0135 39.866C42.6698 39.8639 42.3292 39.9313 42.0122 40.0641ZM29.9802 44.1081C29.4398 44.2603 28.9515 44.5578 28.5682 44.9681C28.0162 45.7121 28.0122 45.7641 28.0122 52.9561C28.0122 58.6841 28.0362 59.7361 28.1762 60.2081C28.5282 61.3881 29.4602 61.9641 31.0002 61.9641C32.5402 61.9641 33.4722 61.3881 33.8242 60.2081C34.0722 59.3601 34.0682 46.5001 33.8162 45.7601C33.7388 45.4617 33.5969 45.1839 33.4007 44.9462C33.2044 44.7085 32.9585 44.5166 32.6802 44.3841C32.2402 44.1441 31.9842 44.0841 31.2282 44.0561C30.8115 44.031 30.3934 44.0484 29.9802 44.1081Z" fill="white"/>
</svg>
