<svg width="40" height="28" viewBox="0 0 40 28" fill="none" xmlns="http://www.w3.org/2000/svg">
<rect x="0.25" y="0.25" width="39.5" height="27.5" rx="2.75" stroke="#F2F1F8" stroke-opacity="0.3" stroke-width="0.5"/>
<g clip-path="url(#clip0_186_4078)">
<path d="M10.4537 24.8887V23.4326C10.4537 22.8744 10.0934 22.5104 9.47598 22.5104C9.1673 22.5104 8.83285 22.6075 8.60129 22.923C8.42129 22.656 8.16406 22.5104 7.77816 22.5104C7.52082 22.5104 7.26371 22.5832 7.05781 22.8501V22.5589H6.51758V24.8887H7.05781V23.6025C7.05781 23.19 7.28937 22.9957 7.64961 22.9957C8.00961 22.9957 8.18984 23.2142 8.18984 23.6025V24.8887H8.73008V23.6025C8.73008 23.19 8.98719 22.9957 9.32164 22.9957C9.68188 22.9957 9.86188 23.2142 9.86188 23.6025V24.8887H10.4537ZM18.4542 22.5589H17.5796V21.8552H17.0394V22.5589H16.5506V23.02H17.0393V24.0879C17.0393 24.6219 17.2708 24.9373 17.8883 24.9373C18.1198 24.9373 18.377 24.8645 18.5572 24.7675L18.4027 24.3306C18.2484 24.4276 18.0684 24.4519 17.9397 24.4519C17.6825 24.4519 17.5796 24.3063 17.5796 24.0636V23.02H18.4542V22.5589ZM23.0334 22.5103C22.7247 22.5103 22.5189 22.656 22.3903 22.8501V22.5589H21.85V24.8887H22.3903V23.5782C22.3903 23.19 22.5703 22.9715 22.9047 22.9715C23.0076 22.9715 23.1363 22.9959 23.2392 23.0201L23.3935 22.5347C23.2906 22.5104 23.1363 22.5104 23.0334 22.5104V22.5103ZM16.1132 22.7531C15.8559 22.5832 15.4958 22.5104 15.1099 22.5104C14.4925 22.5104 14.081 22.8016 14.081 23.2627C14.081 23.6511 14.3896 23.8694 14.9299 23.9423L15.1871 23.9666C15.4701 24.015 15.6245 24.0879 15.6245 24.2093C15.6245 24.3791 15.4187 24.5005 15.0584 24.5005C14.6983 24.5005 14.4153 24.3791 14.2352 24.2578L13.978 24.6461C14.261 24.8402 14.6469 24.9373 15.0327 24.9373C15.753 24.9373 16.1647 24.6219 16.1647 24.185C16.1647 23.7724 15.8302 23.5539 15.3157 23.4812L15.0584 23.4569C14.8269 23.4325 14.6469 23.3841 14.6469 23.2385C14.6469 23.0686 14.8269 22.9715 15.1099 22.9715C15.4187 22.9715 15.7273 23.0928 15.8817 23.1657L16.1132 22.7531ZM30.4681 22.5104C30.1593 22.5104 29.9536 22.656 29.8249 22.8501V22.5589H29.2846V24.8887H29.8249V23.5782C29.8249 23.19 30.005 22.9715 30.3393 22.9715C30.4423 22.9715 30.571 22.9959 30.6739 23.0201L30.8282 22.5347C30.7254 22.5104 30.571 22.5104 30.4681 22.5104ZM23.5736 23.7238C23.5736 24.4276 24.0881 24.9373 24.8857 24.9373C25.2458 24.9373 25.503 24.8645 25.7602 24.6704L25.503 24.2578C25.2972 24.4034 25.0914 24.4762 24.8599 24.4762C24.4225 24.4762 24.1139 24.185 24.1139 23.7238C24.1139 23.2871 24.4225 22.9957 24.8599 22.9715C25.0914 22.9715 25.2972 23.0443 25.503 23.19L25.7602 22.7774C25.503 22.5832 25.2458 22.5104 24.8857 22.5104C24.0881 22.5104 23.5736 23.0201 23.5736 23.7238ZM28.5644 23.7238V22.5589H28.0242V22.8501C27.8441 22.6318 27.5868 22.5104 27.2524 22.5104C26.5578 22.5104 26.0176 23.0201 26.0176 23.7238C26.0176 24.4276 26.5578 24.9373 27.2524 24.9373C27.6125 24.9373 27.8698 24.816 28.0242 24.5975V24.8887H28.5644V23.7238ZM26.5835 23.7238C26.5835 23.3113 26.8665 22.9715 27.3295 22.9715C27.7668 22.9715 28.0756 23.2871 28.0756 23.7238C28.0756 24.1364 27.7668 24.4762 27.3295 24.4762C26.8665 24.4518 26.5835 24.1364 26.5835 23.7238ZM20.1264 22.5104C19.4061 22.5104 18.8915 22.9957 18.8915 23.7238C18.8915 24.4519 19.406 24.9373 20.1521 24.9373C20.5122 24.9373 20.8725 24.8402 21.1555 24.6219L20.8981 24.2578C20.6923 24.4034 20.4351 24.5005 20.1779 24.5005C19.8434 24.5005 19.509 24.3549 19.4318 23.9422H21.2584V23.7482C21.2841 22.9957 20.8211 22.5104 20.1264 22.5104ZM20.1264 22.9472C20.4608 22.9472 20.6925 23.1415 20.7438 23.5055H19.4575C19.509 23.19 19.7405 22.9472 20.1264 22.9472ZM33.5294 23.7238V21.6367H32.9892V22.8501C32.8091 22.6318 32.5518 22.5104 32.2174 22.5104C31.5228 22.5104 30.9826 23.0201 30.9826 23.7238C30.9826 24.4276 31.5228 24.9373 32.2174 24.9373C32.5776 24.9373 32.8348 24.816 32.9892 24.5975V24.8887H33.5294V23.7238ZM31.5486 23.7238C31.5486 23.3113 31.8315 22.9715 32.2946 22.9715C32.732 22.9715 33.0406 23.2871 33.0406 23.7238C33.0406 24.1364 32.732 24.4762 32.2946 24.4762C31.8315 24.4518 31.5486 24.1364 31.5486 23.7238ZM13.4892 23.7238V22.5589H12.9489V22.8501C12.7688 22.6318 12.5116 22.5104 12.1771 22.5104C11.4826 22.5104 10.9423 23.0201 10.9423 23.7238C10.9423 24.4276 11.4826 24.9373 12.1771 24.9373C12.5374 24.9373 12.7946 24.816 12.9489 24.5975V24.8887H13.4892V23.7238ZM11.4826 23.7238C11.4826 23.3113 11.7656 22.9715 12.2286 22.9715C12.6659 22.9715 12.9747 23.2871 12.9747 23.7238C12.9747 24.1364 12.6659 24.4762 12.2286 24.4762C11.7656 24.4518 11.4826 24.1364 11.4826 23.7238Z" fill="white"/>
<path d="M15.9336 4.86719H24.0371V18.6035H15.9336V4.86719Z" fill="#FF5F00"/>
<path d="M16.4479 11.7369C16.4479 8.94597 17.8371 6.47047 19.9722 4.86867C18.4031 3.70378 16.4223 3 14.2613 3C9.14176 3 5 6.90727 5 11.7369C5 16.5664 9.14176 20.4737 14.2612 20.4737C16.4221 20.4737 18.403 19.77 19.9722 18.605C17.8371 17.0275 16.4479 14.5278 16.4479 11.7369Z" fill="#EB001B"/>
<path d="M34.9703 11.7369C34.9703 16.5664 30.8285 20.4737 25.7091 20.4737C23.5481 20.4737 21.5673 19.77 19.998 18.605C22.159 17.0033 23.5225 14.5278 23.5225 11.7369C23.5225 8.94597 22.1332 6.47047 19.998 4.86867C21.5672 3.70378 23.5481 3 25.7091 3C30.8285 3 34.9703 6.93159 34.9703 11.7369Z" fill="#F79E1B"/>
</g>
<defs>
<clipPath id="clip0_186_4078">
<rect width="30" height="22" fill="white" transform="translate(5 3)"/>
</clipPath>
</defs>
</svg>
