<svg width="12" height="6" viewBox="0 0 12 6" fill="none" xmlns="http://www.w3.org/2000/svg">
<path d="M10.9882 0.16124C11.0455 0.109734 11.1128 0.0694692 11.1864 0.0427424C11.26 0.0160155 11.3384 0.00335045 11.4172 0.00547096C11.4959 0.00759147 11.5734 0.0244558 11.6453 0.0551008C11.7172 0.0857459 11.782 0.129571 11.8361 0.184076C11.8902 0.23858 11.9325 0.302695 11.9606 0.372761C11.9887 0.442826 12.002 0.517469 11.9998 0.592429C11.9975 0.667389 11.9798 0.741198 11.9476 0.80964C11.9154 0.878083 11.8694 0.939819 11.8122 0.991324L6.41533 5.84395C6.30399 5.94416 6.15659 6 6.00337 6C5.85015 6 5.70275 5.94416 5.59141 5.84395L0.193979 0.991324C0.135477 0.940159 0.0882356 0.878436 0.0550003 0.809742C0.0217651 0.741048 0.00319835 0.666751 0.000377702 0.591168C-0.00244294 0.515584 0.0105397 0.44022 0.0385705 0.369454C0.0666013 0.298687 0.109121 0.233928 0.163662 0.178939C0.218203 0.12395 0.283677 0.0798264 0.35628 0.0491315C0.428884 0.0184365 0.50717 0.00178209 0.586591 0.00013535C0.666013 -0.00151138 0.744986 0.0118823 0.818925 0.0395388C0.892863 0.0671954 0.960292 0.108563 1.0173 0.16124L6.00337 4.64392L10.9882 0.16124Z" fill="#F2F1F8"/>
</svg>
