<svg width="35" height="34" viewBox="0 0 35 34" fill="none" xmlns="http://www.w3.org/2000/svg">
<g clip-path="url(#clip0_57_142)">
<path d="M17.2998 34C26.6886 34 34.2998 26.3888 34.2998 17C34.2998 7.61116 26.6886 0 17.2998 0C7.91096 0 0.299805 7.61116 0.299805 17C0.299805 26.3888 7.91096 34 17.2998 34Z" fill="#F2F1F8" fill-opacity="0.2"/>
<path d="M24.3017 20.6603C24.3559 21.0864 24.2347 21.2511 24.0998 21.2511C23.9649 21.2511 23.7757 21.0864 23.5739 20.757C23.372 20.4276 23.2902 20.0557 23.3986 19.8645C23.4655 19.7402 23.6142 19.6849 23.7896 19.754C24.1402 19.8921 24.2751 20.4266 24.3017 20.6603ZM22.4136 21.5953C22.8312 21.9523 22.9534 22.3635 22.7366 22.6663C22.6686 22.7458 22.5837 22.8092 22.4881 22.8518C22.3926 22.8944 22.2887 22.9153 22.1841 22.9128C21.9512 22.9151 21.7255 22.832 21.5498 22.6791C21.1726 22.3497 21.0642 21.8004 21.3065 21.4986C21.3582 21.4346 21.4244 21.3838 21.4995 21.3504C21.5747 21.3169 21.6568 21.3018 21.7389 21.3063C21.9546 21.3063 22.1979 21.4019 22.4136 21.5942V21.5953ZM7.7373 15.8249C7.7373 10.6048 11.8917 6.375 17.0172 6.375C22.1437 6.375 26.2981 10.6059 26.2981 15.8249C26.2982 17.5285 25.8469 19.2017 24.9902 20.6741C24.9626 20.7156 24.8946 20.7017 24.8818 20.6465C24.5588 18.3249 23.1691 17.0478 21.1461 16.6632C20.9697 16.6356 20.9431 16.5251 21.1726 16.4985C21.7931 16.4432 22.6697 16.4571 23.1276 16.5399C23.1556 16.298 23.1694 16.0546 23.1691 15.8111C23.1691 12.3632 20.4172 9.56144 17.031 9.56144C13.6459 9.56144 10.894 12.3632 10.894 15.8111C10.894 19.2599 13.6459 22.0618 17.031 22.0618H17.3147C17.2184 21.504 17.1774 20.9382 17.1925 20.3724C17.2063 19.9878 17.2881 19.9325 17.4496 20.2343C18.2996 21.7324 19.513 23.0786 21.8877 23.613C23.8299 24.0539 25.7722 24.5618 27.8632 27.268C28.0512 27.5017 27.7686 27.7482 27.5529 27.5559C25.4216 25.6328 23.4793 25.0006 21.7124 25.0006C19.7287 25.0155 18.3804 25.2769 17.0172 25.2769C11.8917 25.2769 7.7373 21.0439 7.7373 15.8238V15.8249Z" fill="#0D1220"/>
</g>
<defs>
<clipPath id="clip0_57_142">
<rect width="34" height="34" fill="white" transform="translate(0.299805)"/>
</clipPath>
</defs>
</svg>
