<svg width="24" height="24" viewBox="0 0 24 24" fill="none" xmlns="http://www.w3.org/2000/svg">
<path d="M16.9882 9.16124C17.0455 9.10973 17.1128 9.06947 17.1864 9.04274C17.26 9.01602 17.3384 9.00335 17.4172 9.00547C17.4959 9.00759 17.5734 9.02446 17.6453 9.0551C17.7172 9.08575 17.782 9.12957 17.8361 9.18408C17.8902 9.23858 17.9325 9.3027 17.9606 9.37276C17.9887 9.44283 18.002 9.51747 17.9998 9.59243C17.9975 9.66739 17.9798 9.7412 17.9476 9.80964C17.9154 9.87808 17.8694 9.93982 17.8122 9.99132L12.4153 14.8439C12.304 14.9442 12.1566 15 12.0034 15C11.8502 15 11.7027 14.9442 11.5914 14.8439L6.19398 9.99132C6.13548 9.94016 6.08824 9.87844 6.055 9.80974C6.02177 9.74105 6.0032 9.66675 6.00038 9.59117C5.99756 9.51558 6.01054 9.44022 6.03857 9.36945C6.0666 9.29869 6.10912 9.23393 6.16366 9.17894C6.2182 9.12395 6.28368 9.07983 6.35628 9.04913C6.42888 9.01844 6.50717 9.00178 6.58659 9.00014C6.66601 8.99849 6.74499 9.01188 6.81892 9.03954C6.89286 9.0672 6.96029 9.10856 7.0173 9.16124L12.0034 13.6439L16.9882 9.16124Z" fill="#F2F1F8"/>
</svg>
