<svg width="32" height="32" viewBox="0 0 32 32" fill="none" xmlns="http://www.w3.org/2000/svg">
<path d="M16 32C24.8366 32 32 24.8366 32 16C32 7.16344 24.8366 0 16 0C7.16344 0 0 7.16344 0 16C0 24.8366 7.16344 32 16 32Z" fill="#26A17B"/>
<path fill-rule="evenodd" clip-rule="evenodd" d="M17.9228 17.3843V17.3823C17.8128 17.3903 17.2458 17.4243 15.9808 17.4243C14.9708 17.4243 14.2598 17.3943 14.0098 17.3823V17.3853C10.1218 17.2143 7.21978 16.5373 7.21978 15.7273C7.21978 14.9183 10.1218 14.2413 14.0098 14.0673V16.7113C14.2638 16.7293 14.9918 16.7723 15.9978 16.7723C17.2048 16.7723 17.8098 16.7223 17.9228 16.7123V14.0693C21.8028 14.2423 24.6978 14.9193 24.6978 15.7273C24.6978 16.5373 21.8028 17.2123 17.9228 17.3843ZM17.9228 13.7943V11.4283H23.3368V7.82031H8.59578V11.4283H14.0098V13.7933C9.60978 13.9953 6.30078 14.8673 6.30078 15.9113C6.30078 16.9553 9.60978 17.8263 14.0098 18.0293V25.6113H17.9228V18.0273C22.3158 17.8253 25.6168 16.9543 25.6168 15.9113C25.6168 14.8683 22.3158 13.9973 17.9228 13.7943Z" fill="white"/>
</svg>
