<svg width="28" height="28" viewBox="0 0 28 28" fill="none" xmlns="http://www.w3.org/2000/svg">
<path d="M3.49998 3.5H24.5C24.8094 3.5 25.1061 3.62292 25.3249 3.84171C25.5437 4.0605 25.6666 4.35725 25.6666 4.66667V23.3333C25.6666 23.6428 25.5437 23.9395 25.3249 24.1583C25.1061 24.3771 24.8094 24.5 24.5 24.5H3.49998C3.19056 24.5 2.89381 24.3771 2.67502 24.1583C2.45623 23.9395 2.33331 23.6428 2.33331 23.3333V4.66667C2.33331 4.35725 2.45623 4.0605 2.67502 3.84171C2.89381 3.62292 3.19056 3.5 3.49998 3.5V3.5ZM14 10.5H9.33331V12.8333H19.8333L14 7V10.5ZM8.16665 15.1667L14 21V17.5H18.6666V15.1667H8.16665Z" fill="white"/>
</svg>
