<svg width="35" height="34" viewBox="0 0 35 34" fill="none" xmlns="http://www.w3.org/2000/svg">
<g clip-path="url(#clip0_57_163)">
<path d="M17.2998 34C26.6886 34 34.2998 26.3888 34.2998 17C34.2998 7.61116 26.6886 0 17.2998 0C7.91096 0 0.299805 7.61116 0.299805 17C0.299805 26.3888 7.91096 34 17.2998 34Z" fill="#F2F1F8" fill-opacity="0.2"/>
<path fill-rule="evenodd" clip-rule="evenodd" d="M19.342 18.4694V18.4672C19.2252 18.4757 18.6227 18.5119 17.2787 18.5119C16.2055 18.5119 15.4501 18.48 15.1845 18.4672V18.4704C11.0535 18.2887 7.97009 17.5694 7.97009 16.7088C7.97009 15.8492 11.0535 15.1299 15.1845 14.9451V17.7543C15.4543 17.7734 16.2278 17.8191 17.2967 17.8191C18.5792 17.8191 19.222 17.766 19.342 17.7554V14.9472C23.4645 15.131 26.5405 15.8503 26.5405 16.7088C26.5405 17.5694 23.4645 18.2866 19.342 18.4694ZM19.342 14.655V12.1411H25.0944V8.30762H9.43209V12.1411H15.1845V14.6539C10.5095 14.8686 6.99365 15.7951 6.99365 16.9043C6.99365 18.0136 10.5095 18.939 15.1845 19.1547V27.2106H19.342V19.1526C24.0096 18.9379 27.5169 18.0125 27.5169 16.9043C27.5169 15.7961 24.0096 14.8707 19.342 14.655Z" fill="#0D1220"/>
</g>
<defs>
<clipPath id="clip0_57_163">
<rect width="34" height="34" fill="white" transform="translate(0.299805)"/>
</clipPath>
</defs>
</svg>
