<svg width="40" height="28" viewBox="0 0 40 28" fill="none" xmlns="http://www.w3.org/2000/svg">
<rect x="0.25" y="0.25" width="39.5" height="27.5" rx="2.75" stroke="#F2F1F8" stroke-opacity="0.3" stroke-width="0.5"/>
<path d="M31.9245 18.3992L31.6632 17.0867H28.7302L28.2635 18.3899L25.9127 18.3946C27.4235 14.7627 28.5458 12.0736 29.2773 10.3247C29.4687 9.8674 29.8082 9.63406 30.3087 9.63756C30.6913 9.64106 31.3155 9.64106 32.1823 9.63873L34 18.3957L31.9245 18.3992ZM29.3905 15.2889H31.2805L30.5747 11.9989L29.3905 15.2889ZM14.2367 9.6364L16.6003 9.63873L12.9463 18.4004L10.5535 18.3981C9.95179 16.0838 9.35757 13.7675 8.77083 11.4494C8.65417 10.9874 8.42317 10.6642 7.97867 10.5114C7.32222 10.2914 6.6626 10.081 6 9.88023L6 9.63873H9.7765C10.4298 9.63873 10.8113 9.9549 10.9338 10.6036C11.0575 11.2534 11.3678 12.9089 11.8672 15.5666L14.2367 9.6364ZM19.8483 9.63873L17.9805 18.3992L15.73 18.3957L17.5967 9.6364L19.8483 9.63873ZM24.41 9.47656C25.0832 9.47656 25.9313 9.68656 26.419 9.88023L26.0247 11.6956C25.5837 11.5182 24.858 11.2791 24.2478 11.2872C23.3612 11.3024 22.8128 11.6746 22.8128 12.0316C22.8128 12.6126 23.7648 12.9054 24.7448 13.5401C25.8625 14.2634 26.0107 14.9132 25.9967 15.6202C25.9815 17.0844 24.7448 18.5299 22.1362 18.5299C20.9462 18.5124 20.5168 18.4132 19.5462 18.0679L19.9568 16.1732C20.945 16.5862 21.3638 16.7181 22.2085 16.7181C22.982 16.7181 23.6458 16.4054 23.6517 15.8606C23.6563 15.4732 23.4183 15.2807 22.5503 14.8024C21.6823 14.3229 20.4643 13.6602 20.4807 12.3267C20.5005 10.6211 22.1163 9.47656 24.41 9.47656Z" fill="#FFC700"/>
</svg>
