<svg width="50" height="50" viewBox="0 0 50 50" fill="none" xmlns="http://www.w3.org/2000/svg">
<g clip-path="url(#clip0_150_364)">
<path d="M25 50C38.8071 50 50 38.8071 50 25C50 11.1929 38.8071 0 25 0C11.1929 0 0 11.1929 0 25C0 38.8071 11.1929 50 25 50Z" fill="#FF8C00"/>
<path d="M35.2969 30.3828C35.3766 31.0094 35.1984 31.2516 35 31.2516C34.8016 31.2516 34.5234 31.0094 34.2266 30.525C33.9297 30.0406 33.8094 29.4937 33.9688 29.2125C34.0672 29.0297 34.2859 28.9484 34.5437 29.05C35.0594 29.2531 35.2578 30.0391 35.2969 30.3828ZM32.5203 31.7578C33.1344 32.2828 33.3141 32.8875 32.9953 33.3328C32.8952 33.4497 32.7704 33.5429 32.6299 33.6056C32.4894 33.6683 32.3366 33.6989 32.1828 33.6953C31.8403 33.6987 31.5084 33.5764 31.25 33.3516C30.6953 32.8672 30.5359 32.0594 30.8922 31.6156C30.9682 31.5215 31.0655 31.4468 31.1761 31.3976C31.2866 31.3484 31.4073 31.3262 31.5281 31.3328C31.8453 31.3328 32.2031 31.4734 32.5203 31.7562V31.7578ZM10.9375 23.2719C10.9375 15.5953 17.0469 9.375 24.5844 9.375C32.1234 9.375 38.2328 15.5969 38.2328 23.2719C38.233 25.7771 37.5693 28.2377 36.3094 30.4031C36.2688 30.4641 36.1687 30.4437 36.15 30.3625C35.675 26.9484 33.6313 25.0703 30.6563 24.5047C30.3969 24.4641 30.3578 24.3016 30.6953 24.2625C31.6078 24.1812 32.8969 24.2016 33.5703 24.3234C33.6114 23.9676 33.6318 23.6097 33.6313 23.2516C33.6313 18.1812 29.5844 14.0609 24.6047 14.0609C19.6266 14.0609 15.5797 18.1812 15.5797 23.2516C15.5797 28.3234 19.6266 32.4438 24.6047 32.4438H25.0219C24.8802 31.6236 24.82 30.7914 24.8422 29.9594C24.8625 29.3937 24.9828 29.3125 25.2203 29.7563C26.4703 31.9594 28.2547 33.9391 31.7469 34.725C34.6031 35.3734 37.4594 36.1203 40.5344 40.1C40.8109 40.4437 40.3953 40.8062 40.0781 40.5234C36.9437 37.6953 34.0875 36.7656 31.4891 36.7656C28.5719 36.7875 26.5891 37.1719 24.5844 37.1719C17.0469 37.1719 10.9375 30.9469 10.9375 23.2703V23.2719Z" fill="white"/>
</g>
<defs>
<clipPath id="clip0_150_364">
<rect width="50" height="50" fill="white"/>
</clipPath>
</defs>
</svg>
