<svg width="50" height="50" viewBox="0 0 50 50" fill="none" xmlns="http://www.w3.org/2000/svg">
<path d="M45.4453 39.8203H4.55859C2.91797 39.8203 1.57812 38.4805 1.57812 36.8398V13.1523C1.57812 11.5117 2.91797 10.1719 4.55859 10.1719H45.4453C47.0859 10.1719 48.4258 11.5117 48.4258 13.1523V36.8398C48.4258 38.4805 47.0859 39.8203 45.4453 39.8203Z" fill="#FFC107"/>
<path d="M1.57422 15.1875H48.4297V21.4648H1.57422V15.1875Z" fill="#424242"/>
<path d="M44.6094 28.9648H5.41797C5.03516 28.9648 4.71875 28.6523 4.71875 28.2656V24.9805C4.71875 24.5977 5.03125 24.2812 5.41797 24.2812H44.6094C44.9922 24.2812 45.3086 24.5937 45.3086 24.9805V28.2656C45.3047 28.6484 44.9922 28.9648 44.6094 28.9648Z" fill="white"/>
<rect x="7" y="26" width="22" height="1.5" rx="0.75" fill="#B8B8B8"/>
</svg>
