<svg width="50" height="50" viewBox="0 0 50 50" fill="none" xmlns="http://www.w3.org/2000/svg">
<path d="M43.1223 38.7031H6.39727C5.46593 38.7015 4.57324 38.3307 3.91483 37.672C3.25642 37.0133 2.886 36.1204 2.88477 35.1891V14.0938C2.88559 13.1621 3.25582 12.2689 3.91428 11.6098C4.57273 10.9508 5.46566 10.5798 6.39727 10.5781H43.1223C44.0536 10.5798 44.9463 10.9506 45.6047 11.6093C46.2631 12.268 46.6335 13.1609 46.6348 14.0922V35.1875C46.6358 35.6492 46.5457 36.1066 46.3696 36.5334C46.1934 36.9602 45.9348 37.348 45.6085 37.6746C45.2821 38.0012 44.8945 38.2602 44.4679 38.4367C44.0413 38.6132 43.584 38.7037 43.1223 38.7031V38.7031Z" fill="#00A6ED"/>
<path d="M36.3004 29.3281H8.53164C8.27704 29.3269 8.03326 29.225 7.85352 29.0447C7.67378 28.8643 7.57268 28.6202 7.57227 28.3656V24.0406C7.57227 23.5203 7.99727 23.0781 8.53164 23.0781H36.3004C36.8191 23.0781 37.2598 23.5047 37.2598 24.0406V28.3812C37.2592 28.5065 37.2338 28.6304 37.1852 28.7458C37.1367 28.8612 37.0658 28.9659 36.9766 29.0538C36.8875 29.1418 36.7819 29.2113 36.6659 29.2584C36.5498 29.3055 36.4256 29.3292 36.3004 29.3281V29.3281Z" fill="#F4F4F4"/>
<path d="M39.3739 35.5781H42.177C42.3523 35.5792 42.5261 35.5454 42.6882 35.4788C42.8504 35.4122 42.9978 35.3141 43.1217 35.1901C43.2457 35.0661 43.3438 34.9188 43.4104 34.7566C43.4771 34.5944 43.5108 34.4207 43.5098 34.2453V31.4422C43.5108 31.2669 43.4771 31.0931 43.4104 30.9309C43.3438 30.7688 43.2457 30.6214 43.1217 30.4975C42.9978 30.3735 42.8504 30.2754 42.6882 30.2087C42.5261 30.1421 42.3523 30.1084 42.177 30.1094H39.3739C39.1985 30.1084 39.0248 30.1421 38.8626 30.2087C38.7004 30.2754 38.5531 30.3735 38.4291 30.4975C38.3051 30.6214 38.207 30.7688 38.1404 30.9309C38.0738 31.0931 38.04 31.2669 38.041 31.4422V34.2453C38.0439 34.5979 38.1852 34.9353 38.4346 35.1846C38.6839 35.434 39.0213 35.5753 39.3739 35.5781Z" fill="#FFF478"/>
<path d="M46.6348 15.2656H2.88477V19.9531H46.6348V15.2656Z" fill="#321B41"/>
<path d="M9.13477 26.2031C9.13477 25.9959 9.21708 25.7972 9.36359 25.6507C9.5101 25.5042 9.70882 25.4219 9.91602 25.4219H27.1035C27.3107 25.4219 27.5094 25.5042 27.6559 25.6507C27.8025 25.7972 27.8848 25.9959 27.8848 26.2031C27.8848 26.4103 27.8025 26.609 27.6559 26.7556C27.5094 26.9021 27.3107 26.9844 27.1035 26.9844H9.91602C9.70882 26.9844 9.5101 26.9021 9.36359 26.7556C9.21708 26.609 9.13477 26.4103 9.13477 26.2031Z" fill="#9B9B9B"/>
</svg>
